<svg width="24" height="24" viewBox="0 0 24 24" fill="none" xmlns="http://www.w3.org/2000/svg">
<mask id="mask0_1022_945" style="mask-type:alpha" maskUnits="userSpaceOnUse" x="0" y="0" width="24" height="24">
<rect width="24" height="24" fill="#D9D9D9"/>
</mask>
<g mask="url(#mask0_1022_945)">
<path d="M12 21.3848V20.3845H18.3845C18.564 20.3845 18.7115 20.3268 18.827 20.2115C18.9423 20.0962 19 19.9488 19 19.7693V19H15.923V12.8463H19V11C19 9.06667 18.3167 7.41667 16.95 6.05C15.5833 4.68333 13.9333 4 12 4C10.0667 4 8.41667 4.68333 7.05 6.05C5.68333 7.41667 5 9.06667 5 11V12.8463H8.077V19H5.6155C5.15517 19 4.77083 18.8458 4.4625 18.5375C4.15417 18.2292 4 17.8448 4 17.3845V11C4 9.89483 4.20867 8.85733 4.626 7.8875C5.04333 6.91767 5.61542 6.06925 6.34225 5.34225C7.06925 4.61542 7.91767 4.04333 8.8875 3.626C9.85733 3.20867 10.8948 3 12 3C13.1052 3 14.1427 3.20867 15.1125 3.626C16.0823 4.04333 16.9307 4.61542 17.6578 5.34225C18.3846 6.06925 18.9567 6.91767 19.374 7.8875C19.7913 8.85733 20 9.89483 20 11V19.7693C20 20.2294 19.8458 20.6137 19.5375 20.922C19.2292 21.2305 18.8448 21.3848 18.3845 21.3848H12ZM5.6155 18H7.077V13.8463H5V17.3845C5 17.564 5.05767 17.7115 5.173 17.827C5.2885 17.9423 5.436 18 5.6155 18ZM16.923 18H19V13.8463H16.923V18Z" fill="#212121"/>
</g>
</svg>
