<svg width="32" height="32" viewBox="0 0 32 32" fill="none" xmlns="http://www.w3.org/2000/svg">
<mask id="mask0_1022_2872" style="mask-type:alpha" maskUnits="userSpaceOnUse" x="0" y="0" width="32" height="32">
<rect width="32" height="32" fill="#D9D9D9"/>
</mask>
<g mask="url(#mask0_1022_2872)">
<path d="M28.1076 27.8718L21.0973 20.8618C20.1179 21.6583 19.1082 22.2694 18.0679 22.6952C17.0277 23.1207 15.8512 23.3335 14.5383 23.3335C12.7434 23.3335 11.1045 22.9087 9.62161 22.0592C8.13872 21.2096 6.95627 20.0788 6.07427 18.6668H7.72561C8.5325 19.6771 9.52261 20.4852 10.6959 21.0912C11.8695 21.6972 13.1503 22.0002 14.5383 22.0002C16.9316 22.0002 18.9744 21.1541 20.6666 19.4618C22.3588 17.7694 23.2049 15.7266 23.2049 13.3335C23.2049 10.9404 22.3588 8.89761 20.6666 7.20516C18.9744 5.51294 16.9316 4.66683 14.5383 4.66683C12.2614 4.66683 10.2977 5.44072 8.64728 6.9885C6.99683 8.5365 6.08272 10.4293 5.90494 12.6668H4.57161C4.74939 10.0326 5.78661 7.8185 7.68328 6.0245C9.57994 4.2305 11.8649 3.3335 14.5383 3.3335C17.3281 3.3335 19.6922 4.30272 21.6306 6.24116C23.5691 8.17961 24.5383 10.5437 24.5383 13.3335C24.5383 14.6464 24.3255 15.8272 23.8999 16.8758C23.4744 17.9245 22.8633 18.9386 22.0666 19.9182L29.0513 26.9028L28.1076 27.8718ZM13.3873 18.2565L11.0306 10.4258L8.98961 16.2565H2.94861V15.0772H8.15394L10.3539 8.74383H11.7639L14.0793 16.5182L15.8716 11.0772H17.2819L19.2819 15.0772H20.3846V16.2565H18.5616L16.6616 12.4565L14.7639 18.2565H13.3873Z" fill="white"/>
</g>
</svg>
