<svg width="40" height="40" viewBox="0 0 40 40" fill="none" xmlns="http://www.w3.org/2000/svg">
<path d="M19.9993 6.71997C12.666 6.71997 6.66602 12.7066 6.66602 20.08C6.66602 26.7466 11.546 32.28 17.9193 33.28V23.9466H14.5327V20.08H17.9193V17.1333C17.9193 13.7866 19.906 11.9466 22.9593 11.9466C24.4127 11.9466 25.9327 12.2 25.9327 12.2V15.4933H24.2527C22.5993 15.4933 22.0793 16.52 22.0793 17.5733V20.08H25.786L25.186 23.9466H22.0793V33.28C25.2213 32.7838 28.0823 31.1807 30.1459 28.7601C32.2095 26.3394 33.3398 23.2608 33.3327 20.08C33.3327 12.7066 27.3327 6.71997 19.9993 6.71997Z" fill="white"/>
</svg>
