<svg width="40" height="40" viewBox="0 0 40 40" fill="none" xmlns="http://www.w3.org/2000/svg">
<path fill-rule="evenodd" clip-rule="evenodd" d="M19.9837 13.8305C21.2352 13.8305 22.3994 14.2042 23.3709 14.846C25.0381 15.9473 26.138 17.8383 26.138 19.9862C26.138 23.3859 23.3826 26.1419 19.9837 26.1419C18.487 26.1419 17.1151 25.6075 16.0483 24.7191C14.6925 23.5899 13.8294 21.8889 13.8294 19.9862C13.8294 16.5865 16.5848 13.8305 19.9837 13.8305ZM27.8412 13.595C27.8412 14.3929 27.1987 15.0302 26.4062 15.0302C25.6085 15.0302 24.9713 14.3876 24.9713 13.595C24.9713 12.8024 25.6138 12.1598 26.4062 12.1598C27.1987 12.1598 27.8412 12.8024 27.8412 13.595ZM31.9157 15.0517C31.8247 13.1291 31.3856 11.4261 29.9775 10.023C28.5747 8.61988 26.8721 8.18074 24.9499 8.08435C22.9689 7.97188 17.0311 7.97188 15.0501 8.08435C13.1333 8.17539 11.4307 8.61453 10.0225 10.0176C8.61439 11.4207 8.1807 13.1237 8.08433 15.0463C7.97189 17.0278 7.97189 22.9669 8.08433 24.9483C8.17535 26.8709 8.61439 28.5739 10.0225 29.977C11.4307 31.3801 13.1279 31.8193 15.0501 31.9157C17.0311 32.0281 22.9689 32.0281 24.9499 31.9157C26.8721 31.8246 28.5747 31.3855 29.9775 29.977C31.3803 28.5739 31.8193 26.8709 31.9157 24.9483C32.0281 22.9669 32.0281 17.0331 31.9157 15.0517ZM20.0001 23.9467C22.1777 23.9467 23.943 22.1811 23.943 20.003C23.943 17.8249 22.1777 16.0593 20.0001 16.0593C17.8226 16.0593 16.0573 17.8249 16.0573 20.003C16.0573 22.1811 17.8226 23.9467 20.0001 23.9467Z" fill="white"/>
</svg>
