<svg width="40" height="40" viewBox="0 0 40 40" fill="none" xmlns="http://www.w3.org/2000/svg">
<path fill-rule="evenodd" clip-rule="evenodd" d="M19.9878 15.3729C20.9263 15.3729 21.7995 15.6531 22.5281 16.1344C23.7785 16.9604 24.6035 18.3787 24.6035 19.9897C24.6035 22.5394 22.537 24.6064 19.9878 24.6064C18.8654 24.6064 17.8365 24.2057 17.0364 23.5394C16.0194 22.6926 15.3721 21.4167 15.3721 19.9897C15.3721 17.4399 17.4386 15.3729 19.9878 15.3729ZM25.8809 15.1963C25.8809 15.7947 25.399 16.2727 24.8047 16.2727C24.2064 16.2727 23.7285 15.7907 23.7285 15.1963C23.7285 14.6018 24.2104 14.1198 24.8047 14.1198C25.399 14.1198 25.8809 14.6018 25.8809 15.1963ZM28.9368 16.2887C28.8685 14.8468 28.5392 13.5696 27.4831 12.5172C26.431 11.4649 25.154 11.1356 23.7124 11.0633C22.2267 10.9789 17.7733 10.9789 16.2876 11.0633C14.85 11.1315 13.573 11.4609 12.5169 12.5132C11.4608 13.5655 11.1355 14.8428 11.0632 16.2847C10.9789 17.7708 10.9789 22.2251 11.0632 23.7113C11.1315 25.1532 11.4608 26.4304 12.5169 27.4828C13.573 28.5351 14.846 28.8644 16.2876 28.9367C17.7733 29.0211 22.2267 29.0211 23.7124 28.9367C25.154 28.8685 26.431 28.5391 27.4831 27.4828C28.5352 26.4304 28.8645 25.1532 28.9368 23.7113C29.0211 22.2251 29.0211 17.7749 28.9368 16.2887ZM20.0001 22.9601C21.6333 22.9601 22.9573 21.6358 22.9573 20.0023C22.9573 18.3687 21.6333 17.0445 20.0001 17.0445C18.3669 17.0445 17.043 18.3687 17.043 20.0023C17.043 21.6358 18.3669 22.9601 20.0001 22.9601Z" fill="white"/>
</svg>
