<?xml version="1.0" encoding="UTF-8"?>
<svg id="Capa_2" data-name="Capa 2" xmlns="http://www.w3.org/2000/svg" viewBox="0 0 580 433.84">
  <defs>
    <style>
      .cls-1 {
        fill: #00a5cf;
        stroke-width: 0px;
      }
    </style>
  </defs>
  <g id="Capa_1-2" data-name="Capa 1">
    <g>
      <path class="cls-1" d="m368.78,81.06c19.88-14.98,23.85-43.24,8.87-63.11-14.98-19.88-43.23-23.85-63.11-8.87-17.26,13.01-22.51,36.03-13.78,54.88l-97.74,141.87c-15.76,22.87-40.75,36.51-68.56,37.41-27.18.89-52.43-10.76-69.14-31.92-.44-.55-.86-1.11-1.29-1.67-14.42-19.14-20.53-42.74-17.19-66.47s15.71-44.73,34.85-59.16c30.9-23.27,73.03-24.19,104.84-2.28,10.44,7.2,24.74,4.56,31.94-5.89,7.2-10.44,4.56-24.74-5.89-31.94-48.13-33.15-111.84-31.77-158.54,3.42C25.1,69.16,6.39,100.92,1.35,136.8c-5.04,35.88,4.19,71.57,25.99,100.5.62.81,1.24,1.62,1.9,2.46,24.94,31.59,62.01,49.46,102.26,49.46,1.48,0,2.96-.03,4.44-.07,42.54-1.38,80.78-22.25,104.89-57.26l97.76-141.9c10.44.72,21.17-2.14,30.18-8.93Z"/>
      <path class="cls-1" d="m552.71,196.48c-.61-.8-1.21-1.59-1.85-2.4-25.86-32.75-64.75-50.8-106.71-49.39-42.54,1.38-80.77,22.25-104.89,57.26l-97.76,141.9c-10.44-.72-21.17,2.14-30.19,8.93-19.88,14.98-23.85,43.24-8.87,63.11,14.98,19.88,43.24,23.85,63.11,8.87,17.26-13.01,22.51-36.03,13.78-54.88l97.74-141.88c15.76-22.87,40.74-36.51,68.56-37.41,27.29-.91,52.44,10.75,69.14,31.91.45.57.89,1.14,1.29,1.67,29.77,39.5,21.85,95.86-17.66,125.62-30.89,23.28-73.02,24.2-104.84,2.28-10.45-7.2-24.75-4.57-31.94,5.89-7.2,10.44-4.56,24.74,5.89,31.94,23.22,15.99,50.06,23.95,76.87,23.95,28.76,0,57.49-9.16,81.66-27.37,59.73-45.01,71.7-130.22,26.65-190Z"/>
    </g>
  </g>
</svg>