<svg width="40" height="40" viewBox="0 0 40 40" fill="none" xmlns="http://www.w3.org/2000/svg">
<path d="M17.3327 24.0001L24.2527 20.0001L17.3327 16.0001V24.0001ZM32.746 13.5601C32.9193 14.1867 33.0393 15.0267 33.1193 16.0934C33.2127 17.1601 33.2527 18.0801 33.2527 18.8801L33.3327 20.0001C33.3327 22.9201 33.1193 25.0667 32.746 26.4401C32.4127 27.6401 31.6393 28.4134 30.4393 28.7467C29.8127 28.9201 28.666 29.0401 26.906 29.1201C25.1727 29.2134 23.586 29.2534 22.1193 29.2534L19.9993 29.3334C14.4127 29.3334 10.9327 29.1201 9.55935 28.7467C8.35935 28.4134 7.58602 27.6401 7.25268 26.4401C7.07935 25.8134 6.95935 24.9734 6.87935 23.9067C6.78602 22.8401 6.74602 21.9201 6.74602 21.1201L6.66602 20.0001C6.66602 17.0801 6.87935 14.9334 7.25268 13.5601C7.58602 12.3601 8.35935 11.5867 9.55935 11.2534C10.186 11.0801 11.3327 10.9601 13.0927 10.8801C14.826 10.7867 16.4127 10.7467 17.8793 10.7467L19.9993 10.6667C25.586 10.6667 29.066 10.8801 30.4393 11.2534C31.6393 11.5867 32.4127 12.3601 32.746 13.5601Z" fill="white"/>
</svg>
