<svg width="40" height="40" viewBox="0 0 40 40" fill="none" xmlns="http://www.w3.org/2000/svg">
<mask id="mask0_1022_2339" style="mask-type:alpha" maskUnits="userSpaceOnUse" x="0" y="0" width="40" height="40">
<rect width="40" height="40" fill="#D9D9D9"/>
</mask>
<g mask="url(#mask0_1022_2339)">
<path d="M19.0192 28.2692C16.9294 28.0022 15.1817 27.0919 13.7758 25.5383C12.3697 23.985 11.6667 22.1389 11.6667 20C11.6667 17.6853 12.4768 15.7176 14.0971 14.0971C15.7176 12.4768 17.6853 11.6667 20 11.6667C22.1389 11.6667 23.985 12.3643 25.5383 13.7596C27.0919 15.1549 28.0022 16.8974 28.2692 18.9871L26.4679 18.4583C26.1085 16.9583 25.3346 15.7292 24.1462 14.7708C22.9576 13.8125 21.5756 13.3333 20 13.3333C18.1667 13.3333 16.5972 13.9861 15.2917 15.2917C13.9861 16.5972 13.3333 18.1667 13.3333 20C13.3333 21.5833 13.8178 22.9722 14.7867 24.1667C15.7558 25.3611 16.9797 26.1389 18.4583 26.5L19.0192 28.2692ZM21.0192 34.9488C20.8494 34.9829 20.6796 35 20.5096 35H20C17.925 35 15.975 34.6064 14.15 33.8192C12.325 33.0319 10.7375 31.9636 9.3875 30.6142C8.0375 29.2647 6.96875 27.6778 6.18125 25.8533C5.39375 24.0292 5 22.0799 5 20.0054C5 17.9312 5.39361 15.9811 6.18083 14.155C6.96806 12.3292 8.03639 10.7408 9.38583 9.39C10.7353 8.03917 12.3222 6.96986 14.1467 6.18208C15.9708 5.39403 17.9201 5 19.9946 5C22.0688 5 24.0189 5.39375 25.845 6.18125C27.6708 6.96875 29.2592 8.0375 30.61 9.3875C31.9608 10.7375 33.0301 12.325 33.8179 14.15C34.606 15.975 35 17.925 35 20V20.4938C35 20.6582 34.9829 20.8226 34.9488 20.9871L33.3333 20.5V20C33.3333 16.2778 32.0417 13.125 29.4583 10.5417C26.875 7.95833 23.7222 6.66667 20 6.66667C16.2778 6.66667 13.125 7.95833 10.5417 10.5417C7.95833 13.125 6.66667 16.2778 6.66667 20C6.66667 23.7222 7.95833 26.875 10.5417 29.4583C13.125 32.0417 16.2778 33.3333 20 33.3333H20.5L21.0192 34.9488ZM32.9263 34.6475L24.9358 26.625L23.3975 31.2821L20 20L31.2821 23.3975L26.625 24.9358L34.6475 32.9263L32.9263 34.6475Z" fill="#212121"/>
</g>
</svg>
