<svg width="40" height="40" viewBox="0 0 40 40" fill="none" xmlns="http://www.w3.org/2000/svg">
<mask id="mask0_1022_2349" style="mask-type:alpha" maskUnits="userSpaceOnUse" x="0" y="0" width="40" height="40">
<rect width="40" height="40" fill="#D9D9D9"/>
</mask>
<g mask="url(#mask0_1022_2349)">
<path d="M19.9942 35.6408C19.2523 35.6408 18.6191 35.3772 18.0946 34.85C17.5699 34.3228 17.3075 33.689 17.3075 32.9488H22.6925C22.6925 33.6946 22.4282 34.3297 21.8996 34.8542C21.3713 35.3786 20.7362 35.6408 19.9942 35.6408ZM8.33337 31.2821V29.6154H11.0259V16.4104C11.0259 14.2329 11.7149 12.3178 13.093 10.665C14.4713 9.01222 16.2181 7.98292 18.3334 7.57708V6.66667C18.3334 6.20361 18.495 5.81014 18.8184 5.48625C19.1417 5.16208 19.5343 5 19.9963 5C20.4582 5 20.8521 5.16208 21.178 5.48625C21.5038 5.81014 21.6667 6.20361 21.6667 6.66667V6.79167C21.4253 7.16778 21.2138 7.54708 21.0321 7.92958C20.8505 8.31208 20.7095 8.71917 20.6092 9.15083C20.5075 9.13778 20.4085 9.12653 20.3121 9.11708C20.2157 9.10736 20.1117 9.1025 20 9.1025C17.9745 9.1025 16.2502 9.81403 14.8271 11.2371C13.4041 12.6601 12.6925 14.3846 12.6925 16.4104V29.6154H27.3075V19.4842C27.5725 19.5353 27.8456 19.5753 28.1267 19.6042C28.4075 19.6331 28.69 19.6368 28.9742 19.6154V29.6154H31.6667V31.2821H8.33337ZM28.273 15.6729C27.1166 15.6729 26.1324 15.2682 25.3205 14.4588C24.5085 13.6493 24.1025 12.6664 24.1025 11.51C24.1025 10.3539 24.5073 9.36972 25.3167 8.5575C26.1262 7.74556 27.1091 7.33958 28.2655 7.33958C29.4219 7.33958 30.406 7.74431 31.218 8.55375C32.0299 9.36319 32.4359 10.3461 32.4359 11.5025C32.4359 12.6589 32.0312 13.6431 31.2217 14.455C30.4123 15.2669 29.4293 15.6729 28.273 15.6729Z" fill="#212121"/>
</g>
</svg>
