<svg width="40" height="40" viewBox="0 0 40 40" fill="none" xmlns="http://www.w3.org/2000/svg">
<path d="M17.3332 23.9998L24.2532 19.9998L17.3332 15.9998V23.9998ZM32.7465 13.5598C32.9198 14.1865 33.0398 15.0265 33.1198 16.0932C33.2132 17.1598 33.2532 18.0798 33.2532 18.8798L33.3332 19.9998C33.3332 22.9198 33.1198 25.0665 32.7465 26.4398C32.4132 27.6398 31.6398 28.4132 30.4398 28.7465C29.8132 28.9198 28.6665 29.0398 26.9065 29.1198C25.1732 29.2132 23.5865 29.2532 22.1198 29.2532L19.9998 29.3332C14.4132 29.3332 10.9332 29.1198 9.55984 28.7465C8.35984 28.4132 7.5865 27.6398 7.25317 26.4398C7.07984 25.8132 6.95984 24.9732 6.87984 23.9065C6.7865 22.8398 6.7465 21.9198 6.7465 21.1198L6.6665 19.9998C6.6665 17.0798 6.87984 14.9332 7.25317 13.5598C7.5865 12.3598 8.35984 11.5865 9.55984 11.2532C10.1865 11.0798 11.3332 10.9598 13.0932 10.8798C14.8265 10.7865 16.4132 10.7465 17.8798 10.7465L19.9998 10.6665C25.5865 10.6665 29.0665 10.8798 30.4398 11.2532C31.6398 11.5865 32.4132 12.3598 32.7465 13.5598Z" fill="#00A5CF"/>
</svg>
