<svg width="48" height="48" viewBox="0 0 48 48" fill="none" xmlns="http://www.w3.org/2000/svg">
<mask id="mask0_1022_3658" style="mask-type:alpha" maskUnits="userSpaceOnUse" x="0" y="0" width="48" height="48">
<rect width="48" height="48" fill="#D9D9D9"/>
</mask>
<g mask="url(#mask0_1022_3658)">
<path d="M18.319 42C18.0833 42 17.8802 41.9327 17.7095 41.798C17.5392 41.6633 17.413 41.482 17.331 41.254L12.3845 25H6V23H13.1155C13.3435 23 13.5428 23.0608 13.7135 23.1825C13.8838 23.3045 14.0102 23.4795 14.0925 23.7075L18.2 37.0345L24.9345 6.831C24.9832 6.595 25.0947 6.3975 25.269 6.2385C25.4437 6.0795 25.6488 6 25.8845 6C26.1205 6 26.3257 6.0775 26.5 6.2325C26.6743 6.38783 26.7858 6.58333 26.8345 6.819L31.723 27.7345L35.331 16.169C35.413 15.941 35.5392 15.7597 35.7095 15.625C35.8802 15.4903 36.0795 15.423 36.3075 15.423C36.5358 15.423 36.727 15.482 36.881 15.6C37.0347 15.718 37.1563 15.8872 37.246 16.1075L39.8615 23H41.9615V25H39.1155C38.8872 25 38.6962 24.941 38.5425 24.823C38.3885 24.705 38.2667 24.5487 38.177 24.354L36.381 19.496L32.5155 31.831C32.4335 32.059 32.3117 32.2423 32.15 32.381C31.9883 32.5193 31.7897 32.5847 31.554 32.577C31.318 32.5693 31.1103 32.4878 30.931 32.3325C30.7513 32.1775 30.6372 31.9858 30.5885 31.7575L25.8845 11.5115L19.296 41.181C19.2217 41.4167 19.0993 41.6102 18.929 41.7615C18.7583 41.9128 18.555 41.9923 18.319 42Z" fill="white"/>
</g>
</svg>
