<svg width="48" height="48" viewBox="0 0 48 48" fill="none" xmlns="http://www.w3.org/2000/svg">
<mask id="mask0_1022_3634" style="mask-type:alpha" maskUnits="userSpaceOnUse" x="0" y="0" width="48" height="48">
<rect width="48" height="48" fill="#D9D9D9"/>
</mask>
<g mask="url(#mask0_1022_3634)">
<path d="M23.993 42.769C23.1027 42.769 22.3428 42.4527 21.7135 41.82C21.0838 41.1873 20.769 40.4268 20.769 39.5385H27.231C27.231 40.4335 26.9138 41.1957 26.2795 41.825C25.6455 42.4543 24.8833 42.769 23.993 42.769ZM10 37.5385V35.5385H13.231V19.6925C13.231 17.0795 14.0578 14.7813 15.7115 12.798C17.3655 10.8147 19.4617 9.5795 22 9.0925V8C22 7.44433 22.194 6.97217 22.582 6.5835C22.97 6.1945 23.4412 6 23.9955 6C24.5498 6 25.0225 6.1945 25.4135 6.5835C25.8045 6.97217 26 7.44433 26 8V8.15C25.7103 8.60133 25.4565 9.0565 25.2385 9.5155C25.0205 9.9745 24.8513 10.463 24.731 10.981C24.609 10.9653 24.4902 10.9518 24.3745 10.9405C24.2588 10.9288 24.134 10.923 24 10.923C21.5693 10.923 19.5002 11.7768 17.7925 13.4845C16.0848 15.1922 15.231 17.2615 15.231 19.6925V35.5385H32.769V23.381C33.087 23.4423 33.4147 23.4903 33.752 23.525C34.089 23.5597 34.428 23.5642 34.769 23.5385V35.5385H38V37.5385H10ZM33.9275 18.8075C32.5398 18.8075 31.3588 18.3218 30.3845 17.3505C29.4102 16.3792 28.923 15.1997 28.923 13.812C28.923 12.4247 29.4087 11.2437 30.38 10.269C31.3513 9.29467 32.5308 8.8075 33.9185 8.8075C35.3062 8.8075 36.4872 9.29317 37.4615 10.2645C38.4358 11.2358 38.923 12.4153 38.923 13.803C38.923 15.1907 38.4373 16.3717 37.466 17.346C36.4947 18.3203 35.3152 18.8075 33.9275 18.8075Z" fill="white"/>
</g>
</svg>
