<svg width="48" height="48" viewBox="0 0 48 48" fill="none" xmlns="http://www.w3.org/2000/svg">
<mask id="mask0_1022_3666" style="mask-type:alpha" maskUnits="userSpaceOnUse" x="0" y="0" width="48" height="48">
<rect width="48" height="48" fill="#D9D9D9"/>
</mask>
<g mask="url(#mask0_1022_3666)">
<path d="M20 32.077C23.3333 32.077 26.1667 30.9065 28.5 28.5655C30.8333 26.2248 32 23.3825 32 20.0385C32 16.6945 30.8333 13.852 28.5 11.511C26.1667 9.17033 23.3333 8 20 8C16.6667 8 13.8333 9.17033 11.5 11.511C9.16667 13.852 8 16.6945 8 20.0385C8 23.3825 9.16667 26.2248 11.5 28.5655C13.8333 30.9065 16.6667 32.077 20 32.077ZM19 25.1925V13.269H21V25.1925H19ZM12.3075 25.1925V17.077H14.3075V25.1925H12.3075ZM25.6925 25.1925V19H27.6925V25.1925H25.6925ZM40.623 42L29.196 30.573C27.9577 31.6397 26.5545 32.4775 24.9865 33.0865C23.4185 33.6955 21.7563 34 20 34C16.0917 34 12.7812 32.6443 10.0685 29.933C7.35617 27.2217 6 23.9127 6 20.006C6 16.0993 7.35567 12.7883 10.067 10.073C12.7783 7.35767 16.0873 6 19.994 6C23.9007 6 27.2117 7.35617 29.927 10.0685C32.6423 12.7812 34 16.0917 34 20C34 21.7563 33.6955 23.4185 33.0865 24.9865C32.4775 26.5545 31.6397 27.9448 30.573 29.1575L42 40.5845L40.623 42Z" fill="white"/>
</g>
</svg>
