<svg width="48" height="48" viewBox="0 0 48 48" fill="none" xmlns="http://www.w3.org/2000/svg">
<mask id="mask0_1022_3642" style="mask-type:alpha" maskUnits="userSpaceOnUse" x="0" y="0" width="48" height="48">
<rect width="48" height="48" fill="#D9D9D9"/>
</mask>
<g mask="url(#mask0_1022_3642)">
<path d="M24.0065 42C21.5175 42 19.1773 41.5277 16.986 40.583C14.795 39.6383 12.889 38.3563 11.268 36.737C9.647 35.1177 8.36383 33.2133 7.4185 31.024C6.47283 28.835 6 26.4958 6 24.0065C6 21.5175 6.4725 19.1773 7.4175 16.986C8.3625 14.795 9.645 12.889 11.265 11.268C12.885 9.647 14.79 8.36383 16.98 7.4185C19.17 6.47283 21.51 6 24 6C26.047 6 27.9837 6.31667 29.81 6.95C31.6367 7.58333 33.3025 8.46667 34.8075 9.6L33.369 11.0885C32.0513 10.1088 30.6017 9.34917 29.02 8.8095C27.4387 8.26983 25.7653 8 24 8C19.5667 8 15.7917 9.55833 12.675 12.675C9.55833 15.7917 8 19.5667 8 24C8 28.4333 9.55833 32.2083 12.675 35.325C15.7917 38.4417 19.5667 40 24 40C28.4333 40 32.2083 38.4417 35.325 35.325C38.4417 32.2083 40 28.4333 40 24C40 23.195 39.941 22.4053 39.823 21.631C39.705 20.857 39.5282 20.1043 39.2925 19.373L40.8885 17.7385C41.2552 18.7282 41.532 19.7437 41.719 20.785C41.9063 21.826 42 22.8977 42 24C42 26.49 41.5277 28.83 40.583 31.02C39.6383 33.21 38.3563 35.115 36.737 36.735C35.1177 38.355 33.2133 39.6375 31.024 40.5825C28.835 41.5275 26.4958 42 24.0065 42ZM21.123 31.8155L14.0075 24.7L15.423 23.2845L21.123 28.9845L40.5845 9.5115L42 10.927L21.123 31.8155Z" fill="white"/>
</g>
</svg>
