<svg width="41" height="40" viewBox="0 0 41 40" fill="none" xmlns="http://www.w3.org/2000/svg">
<mask id="mask0_234_2562" style="mask-type:alpha" maskUnits="userSpaceOnUse" x="0" y="0" width="41" height="40">
<rect x="0.5" width="40" height="40" fill="#D9D9D9"/>
</mask>
<g mask="url(#mask0_234_2562)">
<path d="M26.6538 20.6408L20.3784 14.6283C19.6454 13.9231 19.0337 13.1342 18.5434 12.2617C18.0529 11.3889 17.8076 10.4385 17.8076 9.41042C17.8076 8.18514 18.2365 7.14375 19.0943 6.28625C19.9518 5.42875 20.993 5 22.218 5C23.1283 5 23.9563 5.24625 24.7022 5.73875C25.4477 6.23125 26.0983 6.82903 26.6538 7.53208C27.2094 6.82903 27.8601 6.23125 28.6059 5.73875C29.3515 5.24625 30.1794 5 31.0897 5C32.315 5 33.3563 5.42875 34.2138 6.28625C35.0713 7.14375 35.5001 8.18514 35.5001 9.41042C35.5001 10.4385 35.2565 11.3889 34.7693 12.2617C34.282 13.1342 33.672 13.9231 32.9393 14.6283L26.6538 20.6408ZM26.6538 18.3463L31.6443 13.5675C32.2362 12.9969 32.749 12.365 33.1826 11.6717C33.6165 10.9781 33.8334 10.2243 33.8334 9.41042C33.8334 8.64958 33.5663 8.00208 33.0322 7.46792C32.498 6.93375 31.8505 6.66667 31.0897 6.66667C30.423 6.66667 29.8254 6.86597 29.2968 7.26458C28.7679 7.66292 28.2929 8.13236 27.8718 8.67292L26.6538 10.1988L25.4359 8.67292C25.0151 8.13236 24.5402 7.66292 24.0114 7.26458C23.4825 6.86597 22.8847 6.66667 22.218 6.66667C21.4575 6.66667 20.8101 6.93375 20.2759 7.46792C19.7415 8.00208 19.4743 8.64958 19.4743 9.41042C19.4743 10.2243 19.6912 10.9781 20.1251 11.6717C20.559 12.365 21.0718 12.9969 21.6634 13.5675L26.6538 18.3463ZM11.173 31.0896L23.7822 34.7692L33.763 31.6858C33.7308 31.1794 33.5795 30.8146 33.3093 30.5913C33.0387 30.3679 32.7326 30.2563 32.3909 30.2563H24.4834C23.7787 30.2563 23.1401 30.2285 22.5676 30.1729C21.9948 30.1174 21.4082 29.985 20.8076 29.7758L17.1572 28.58L17.7213 26.9325L21.0963 28.1537C21.6327 28.3568 22.2416 28.4786 22.923 28.5192C23.6047 28.5597 24.5384 28.5832 25.7243 28.5896C25.7243 28.0704 25.6287 27.6506 25.4376 27.33C25.2465 27.0094 24.9725 26.7862 24.6155 26.6604L15.0259 23.1408C14.9618 23.1197 14.9029 23.1038 14.8493 23.0929C14.7959 23.0824 14.7372 23.0771 14.673 23.0771H11.173V31.0896ZM4.50635 35V21.4104H14.6355C14.7911 21.4104 14.9511 21.4279 15.1155 21.4629C15.28 21.4982 15.4327 21.5394 15.5738 21.5867L25.2051 25.1154C25.8012 25.3418 26.3145 25.7489 26.7451 26.3367C27.1757 26.9242 27.3909 27.6751 27.3909 28.5896H32.3909C33.3954 28.5896 34.1647 28.9038 34.6988 29.5321C35.233 30.1601 35.5001 30.9571 35.5001 31.9229V32.9488L23.8655 36.5383L11.173 32.8396V35H4.50635ZM6.17301 33.3333H9.50635V23.0771H6.17301V33.3333Z" fill="white"/>
</g>
</svg>
