<svg width="80" height="80" viewBox="0 0 80 80" fill="none" xmlns="http://www.w3.org/2000/svg">
<mask id="mask0_1022_4102" style="mask-type:alpha" maskUnits="userSpaceOnUse" x="0" y="0" width="80" height="80">
<rect width="80" height="80" fill="#D9D9D9"/>
</mask>
<g mask="url(#mask0_1022_4102)">
<path d="M70.365 75.1025L65.2625 70H16.6667V66.6666H22.6925V56.6666C22.6925 52.4233 23.9114 48.8261 26.3492 45.875C28.7875 42.9239 31.6369 41.0083 34.8975 40.1283V39.8075C32.8203 39.2091 30.5692 37.8972 28.1442 35.8716C25.7192 33.8461 24.1178 31.2477 23.34 28.0766L6.28833 11.0258L8.66666 8.64746L72.7433 72.7241L70.365 75.1025ZM47.7308 38.3208L45.4233 36.0316C47.6667 34.7627 49.6528 32.985 51.3817 30.6983C53.11 28.4122 53.9742 25.9572 53.9742 23.3333V13.3333H26.0258V16.635L23.365 13.9741V13.3333H22.7242L19.3908 9.99996H63.3333V13.3333H57.3075V23.3333C57.3075 26.3333 56.3397 29.1688 54.4042 31.84C52.4681 34.5105 50.2436 36.6708 47.7308 38.3208ZM26.0258 66.6666H53.9742V58.7116L37.9292 42.7308C34.9164 43.188 32.1794 44.6452 29.7183 47.1025C27.2567 49.5597 26.0258 52.7477 26.0258 56.6666V66.6666ZM57.3075 66.6666H61.795L57.3075 61.41V66.6666Z" fill="white"/>
</g>
</svg>
