<svg width="64" height="65" viewBox="0 0 64 65" fill="none" xmlns="http://www.w3.org/2000/svg">
<mask id="mask0_1022_5171" style="mask-type:alpha" maskUnits="userSpaceOnUse" x="0" y="0" width="64" height="65">
<rect y="0.5" width="64" height="64" fill="#D9D9D9"/>
</mask>
<g mask="url(#mask0_1022_5171)">
<path d="M56.292 60.582L52.21 56.5H13.3333V53.8333H18.154V45.8333C18.154 42.4386 19.1291 39.5609 21.0793 37.2C23.03 34.8391 25.3095 33.3066 27.918 32.6026V32.346C26.2562 31.8673 24.4553 30.8177 22.5153 29.1973C20.5753 27.5769 19.2942 25.4982 18.672 22.9613L5.03064 9.32063L6.93331 7.41797L58.1946 58.6793L56.292 60.582ZM38.1846 31.1566L36.3386 29.3253C38.1333 28.3102 39.7222 26.888 41.1053 25.0586C42.488 23.2297 43.1793 21.2657 43.1793 19.1666V11.1666H20.8206V13.808L18.692 11.6793V11.1666H18.1793L15.5126 8.49997H50.6666V11.1666H45.846V19.1666C45.846 21.5666 45.0717 23.8351 43.5233 25.972C41.9744 28.1084 40.1949 29.8366 38.1846 31.1566ZM20.8206 53.8333H43.1793V47.4693L30.3433 34.6846C27.9331 35.0504 25.7435 36.2162 23.7746 38.182C21.8053 40.1477 20.8206 42.6982 20.8206 45.8333V53.8333ZM45.846 53.8333H49.436L45.846 49.628V53.8333Z" fill="white"/>
</g>
</svg>
