<svg width="80" height="80" viewBox="0 0 80 80" fill="none" xmlns="http://www.w3.org/2000/svg">
<mask id="mask0_1022_4774" style="mask-type:alpha" maskUnits="userSpaceOnUse" x="0" y="0" width="80" height="80">
<rect width="80" height="80" fill="#D9D9D9"/>
</mask>
<g mask="url(#mask0_1022_4774)">
<path d="M51.6667 64.045L39.8075 52.1859L42.1667 49.8267L51.6667 59.3267L70.6284 40.365L72.9875 42.7242L51.6667 64.045ZM66.6667 33.3334H63.3334V18.7184C63.3334 18.205 63.1198 17.7348 62.6925 17.3075C62.2653 16.8803 61.795 16.6667 61.2817 16.6667H53.3334V24.1025H26.6667V16.6667H18.7184C18.205 16.6667 17.7348 16.8803 17.3075 17.3075C16.8803 17.7348 16.6667 18.205 16.6667 18.7184V61.2817C16.6667 61.795 16.8803 62.2653 17.3075 62.6925C17.7348 63.1198 18.205 63.3334 18.7184 63.3334H36.6667V66.6667H18.7184C17.2267 66.6667 15.9562 66.1423 14.9067 65.0934C13.8578 64.0439 13.3334 62.7734 13.3334 61.2817V18.7184C13.3334 17.2267 13.8578 15.9561 14.9067 14.9067C15.9562 13.8578 17.2267 13.3334 18.7184 13.3334H34.1734C34.485 12.03 35.1773 10.935 36.25 10.0484C37.3228 9.16114 38.5728 8.71753 40 8.71753C41.4528 8.71753 42.7125 9.16114 43.7792 10.0484C44.8453 10.935 45.5342 12.03 45.8459 13.3334H61.2817C62.7734 13.3334 64.0439 13.8578 65.0934 14.9067C66.1423 15.9561 66.6667 17.2267 66.6667 18.7184V33.3334ZM40 17.4359C40.7734 17.4359 41.4156 17.1806 41.9267 16.67C42.4373 16.1595 42.6925 15.5173 42.6925 14.7434C42.6925 13.97 42.4373 13.3281 41.9267 12.8175C41.4156 12.307 40.7734 12.0517 40 12.0517C39.2267 12.0517 38.5845 12.307 38.0734 12.8175C37.5628 13.3281 37.3075 13.97 37.3075 14.7434C37.3075 15.5173 37.5628 16.1595 38.0734 16.67C38.5845 17.1806 39.2267 17.4359 40 17.4359Z" fill="white"/>
</g>
</svg>
