<svg width="64" height="64" viewBox="0 0 64 64" fill="none" xmlns="http://www.w3.org/2000/svg">
<mask id="mask0_1022_5163" style="mask-type:alpha" maskUnits="userSpaceOnUse" x="0" y="0" width="64" height="64">
<rect width="64" height="64" fill="#D9D9D9"/>
</mask>
<g mask="url(#mask0_1022_5163)">
<path d="M40.8327 28.308C41.662 28.308 42.3631 28.0176 42.936 27.4367C43.5084 26.8558 43.7947 26.1507 43.7947 25.3213C43.7947 24.4916 43.5044 23.7904 42.924 23.218C42.3431 22.6451 41.638 22.3587 40.8087 22.3587C39.9789 22.3587 39.2778 22.6491 38.7053 23.23C38.1324 23.8109 37.846 24.516 37.846 25.3453C37.846 26.1751 38.1364 26.8762 38.7173 27.4487C39.2978 28.0216 40.0029 28.308 40.8327 28.308ZM23.1913 28.308C24.0211 28.308 24.7222 28.0176 25.2947 27.4367C25.8676 26.8558 26.154 26.1507 26.154 25.3213C26.154 24.4916 25.8636 23.7904 25.2827 23.218C24.7022 22.6451 23.9971 22.3587 23.1673 22.3587C22.338 22.3587 21.6369 22.6491 21.064 23.23C20.4916 23.8109 20.2053 24.516 20.2053 25.3453C20.2053 26.1751 20.4956 26.8762 21.076 27.4487C21.6569 28.0216 22.362 28.308 23.1913 28.308ZM32 45.0253C34.5436 45.0253 36.8862 44.3238 39.028 42.9207C41.1702 41.5171 42.7798 39.6547 43.8567 37.3333H41.2C40.2222 38.9778 38.9222 40.2778 37.3 41.2333C35.6778 42.1889 33.9111 42.6667 32 42.6667C30.0889 42.6667 28.3222 42.1889 26.7 41.2333C25.0778 40.2778 23.7778 38.9778 22.8 37.3333H20.1433C21.2202 39.6547 22.8298 41.5171 24.972 42.9207C27.1138 44.3238 29.4564 45.0253 32 45.0253ZM32.0087 56C28.69 56 25.5698 55.3702 22.648 54.1107C19.7267 52.8511 17.1853 51.1418 15.024 48.9827C12.8627 46.8236 11.1518 44.2844 9.89133 41.3653C8.63044 38.4467 8 35.3278 8 32.0087C8 28.69 8.62978 25.5698 9.88933 22.648C11.1489 19.7267 12.8582 17.1853 15.0173 15.024C17.1764 12.8627 19.7156 11.1518 22.6347 9.89133C25.5533 8.63044 28.6722 8 31.9913 8C35.31 8 38.4302 8.62978 41.352 9.88934C44.2733 11.1489 46.8147 12.8582 48.976 15.0173C51.1373 17.1764 52.8482 19.7156 54.1087 22.6347C55.3696 25.5533 56 28.6722 56 31.9913C56 35.31 55.3702 38.4302 54.1107 41.352C52.8511 44.2733 51.1418 46.8147 48.9827 48.976C46.8236 51.1373 44.2844 52.8482 41.3653 54.1087C38.4467 55.3696 35.3278 56 32.0087 56ZM32 53.3333C37.9556 53.3333 43 51.2667 47.1333 47.1333C51.2667 43 53.3333 37.9556 53.3333 32C53.3333 26.0444 51.2667 21 47.1333 16.8667C43 12.7333 37.9556 10.6667 32 10.6667C26.0444 10.6667 21 12.7333 16.8667 16.8667C12.7333 21 10.6667 26.0444 10.6667 32C10.6667 37.9556 12.7333 43 16.8667 47.1333C21 51.2667 26.0444 53.3333 32 53.3333Z" fill="white"/>
</g>
</svg>
