<svg width="64" height="65" viewBox="0 0 64 65" fill="none" xmlns="http://www.w3.org/2000/svg">
<mask id="mask0_1022_3187" style="mask-type:alpha" maskUnits="userSpaceOnUse" x="0" y="0" width="64" height="65">
<rect y="0.5" width="64" height="64" fill="#D9D9D9"/>
</mask>
<g mask="url(#mask0_1022_3187)">
<path d="M19.7333 57.3205L17.846 55.4332L34.4 38.8638L43.7333 48.1972L57.5333 34.3972L59.436 36.2998L43.7333 51.9872L34.4 42.6538L19.7333 57.3205ZM12.308 53.8332C11.0804 53.8332 10.0556 53.4221 9.23333 52.5998C8.41111 51.7776 8 50.7527 8 49.5252V15.4745C8 14.2469 8.41111 13.2221 9.23333 12.3998C10.0556 11.5776 11.0804 11.1665 12.308 11.1665H46.3587C47.5862 11.1665 48.6111 11.5776 49.4333 12.3998C50.2556 13.2221 50.6667 14.2469 50.6667 15.4745V26.6745H10.6667V49.5252C10.6667 49.9358 10.8376 50.3121 11.1793 50.6538C11.5211 50.9956 11.8973 51.1665 12.308 51.1665V53.8332ZM10.6667 24.0072H48V15.4745C48 15.0638 47.8291 14.6876 47.4873 14.3458C47.1456 14.0041 46.7693 13.8332 46.3587 13.8332H12.308C11.8973 13.8332 11.5211 14.0041 11.1793 14.3458C10.8376 14.6876 10.6667 15.0638 10.6667 15.4745V24.0072Z" fill="white"/>
</g>
</svg>
