<svg width="80" height="80" viewBox="0 0 80 80" fill="none" xmlns="http://www.w3.org/2000/svg">
<mask id="mask0_1022_4094" style="mask-type:alpha" maskUnits="userSpaceOnUse" x="0" y="0" width="80" height="80">
<rect width="80" height="80" fill="#D9D9D9"/>
</mask>
<g mask="url(#mask0_1022_4094)">
<path d="M40.0108 70C35.8625 70 31.9622 69.2128 28.31 67.6383C24.6583 66.0639 21.4817 63.9272 18.78 61.2283C16.0783 58.5294 13.9397 55.3556 12.3642 51.7067C10.7881 48.0583 10 44.1597 10 40.0108C10 35.8625 10.7875 31.9622 12.3625 28.31C13.9375 24.6583 16.075 21.4817 18.775 18.78C21.475 16.0783 24.65 13.9397 28.3 12.3642C31.95 10.7881 35.85 10 40 10C43.4117 10 46.6394 10.5278 49.6833 11.5833C52.7278 12.6389 55.5042 14.1111 58.0125 16L55.615 18.4808C53.4189 16.8481 51.0028 15.5819 48.3667 14.6825C45.7311 13.7831 42.9422 13.3333 40 13.3333C32.6111 13.3333 26.3194 15.9306 21.125 21.125C15.9306 26.3194 13.3333 32.6111 13.3333 40C13.3333 47.3889 15.9306 53.6806 21.125 58.875C26.3194 64.0694 32.6111 66.6667 40 66.6667C47.3889 66.6667 53.6806 64.0694 58.875 58.875C64.0694 53.6806 66.6667 47.3889 66.6667 40C66.6667 38.6583 66.5683 37.3422 66.3717 36.0517C66.175 34.7617 65.8803 33.5072 65.4875 32.2883L68.1475 29.5642C68.7586 31.2136 69.22 32.9061 69.5317 34.6417C69.8439 36.3767 70 38.1628 70 40C70 44.15 69.2128 48.05 67.6383 51.7C66.0639 55.35 63.9272 58.525 61.2283 61.225C58.5294 63.925 55.3556 66.0625 51.7067 67.6375C48.0583 69.2125 44.1597 70 40.0108 70ZM35.205 53.0258L23.3458 41.1667L25.705 38.8075L35.205 48.3075L67.6408 15.8525L70 18.2117L35.205 53.0258Z" fill="white"/>
</g>
</svg>
