<svg width="64" height="65" viewBox="0 0 64 65" fill="none" xmlns="http://www.w3.org/2000/svg">
<mask id="mask0_1022_1035" style="mask-type:alpha" maskUnits="userSpaceOnUse" x="0" y="0" width="64" height="65">
<rect y="0.5" width="64" height="64" fill="#D9D9D9"/>
</mask>
<g mask="url(#mask0_1022_1035)">
<path d="M25.0254 7.16667V4.5H38.9747V7.16667H25.0254ZM30.6667 36.808H33.3334V22.8587H30.6667V36.808ZM32 56.5C29.0529 56.5 26.2862 55.9436 23.7 54.8307C21.1138 53.7178 18.8514 52.1922 16.9127 50.254C14.9745 48.3153 13.4489 46.0529 12.336 43.4667C11.2231 40.8804 10.6667 38.1138 10.6667 35.1667C10.6667 32.2196 11.2231 29.4529 12.336 26.8667C13.4489 24.2804 14.9745 22.018 16.9127 20.0793C18.8514 18.1411 21.1138 16.6156 23.7 15.5027C26.2862 14.3898 29.0529 13.8333 32 13.8333C34.5845 13.8333 37.0836 14.2949 39.4974 15.218C41.9111 16.1411 44.1265 17.4471 46.1434 19.136L49.0567 16.2233L50.9434 18.11L48.0307 21.0233C49.7196 23.0402 51.0256 25.2556 51.9487 27.6693C52.8718 30.0831 53.3334 32.5822 53.3334 35.1667C53.3334 38.1138 52.7769 40.8804 51.664 43.4667C50.5511 46.0529 49.0256 48.3153 47.0874 50.254C45.1487 52.1922 42.8862 53.7178 40.3 54.8307C37.7138 55.9436 34.9471 56.5 32 56.5ZM32 53.8333C37.1556 53.8333 41.5556 52.0111 45.2 48.3667C48.8445 44.7222 50.6667 40.3222 50.6667 35.1667C50.6667 30.0111 48.8445 25.6111 45.2 21.9667C41.5556 18.3222 37.1556 16.5 32 16.5C26.8445 16.5 22.4445 18.3222 18.8 21.9667C15.1556 25.6111 13.3334 30.0111 13.3334 35.1667C13.3334 40.3222 15.1556 44.7222 18.8 48.3667C22.4445 52.0111 26.8445 53.8333 32 53.8333Z" fill="white"/>
</g>
</svg>
