<svg width="40" height="41" viewBox="0 0 40 41" fill="none" xmlns="http://www.w3.org/2000/svg">
<path d="M20 10.54C14.5 10.54 10 15.03 10 20.56C10 25.56 13.66 29.71 18.44 30.46V23.46H15.9V20.56H18.44V18.35C18.44 15.84 19.93 14.46 22.22 14.46C23.31 14.46 24.45 14.65 24.45 14.65V17.12H23.19C21.95 17.12 21.56 17.89 21.56 18.68V20.56H24.34L23.89 23.46H21.56V30.46C23.9164 30.0879 26.0622 28.8856 27.6099 27.0701C29.1576 25.2546 30.0054 22.9457 30 20.56C30 15.03 25.5 10.54 20 10.54Z" fill="#00A5CF"/>
</svg>
