<svg width="40" height="40" viewBox="0 0 40 40" fill="none" xmlns="http://www.w3.org/2000/svg">
<path d="M19.9998 6.72021C12.6665 6.72021 6.6665 12.7069 6.6665 20.0802C6.6665 26.7469 11.5465 32.2802 17.9198 33.2802V23.9469H14.5332V20.0802H17.9198V17.1335C17.9198 13.7869 19.9065 11.9469 22.9598 11.9469C24.4132 11.9469 25.9332 12.2002 25.9332 12.2002V15.4935H24.2532C22.5998 15.4935 22.0798 16.5202 22.0798 17.5735V20.0802H25.7865L25.1865 23.9469H22.0798V33.2802C25.2218 32.784 28.0828 31.1809 30.1464 28.7603C32.21 26.3397 33.3403 23.2611 33.3332 20.0802C33.3332 12.7069 27.3332 6.72021 19.9998 6.72021Z" fill="#00A5CF"/>
</svg>
