<svg width="40" height="41" viewBox="0 0 40 41" fill="none" xmlns="http://www.w3.org/2000/svg">
<path fill-rule="evenodd" clip-rule="evenodd" d="M19.9878 15.8729C20.9263 15.8729 21.7995 16.1531 22.5281 16.6344C23.7785 17.4604 24.6035 18.8787 24.6035 20.4897C24.6035 23.0394 22.537 25.1064 19.9878 25.1064C18.8654 25.1064 17.8365 24.7057 17.0364 24.0394C16.0194 23.1926 15.3721 21.9167 15.3721 20.4897C15.3721 17.9399 17.4386 15.8729 19.9878 15.8729ZM25.8809 15.6963C25.8809 16.2947 25.399 16.7727 24.8047 16.7727C24.2064 16.7727 23.7285 16.2907 23.7285 15.6963C23.7285 15.1018 24.2104 14.6198 24.8047 14.6198C25.399 14.6198 25.8809 15.1018 25.8809 15.6963ZM28.9368 16.7887C28.8685 15.3468 28.5392 14.0696 27.4831 13.0172C26.431 11.9649 25.154 11.6356 23.7124 11.5633C22.2267 11.4789 17.7733 11.4789 16.2876 11.5633C14.85 11.6315 13.573 11.9609 12.5169 13.0132C11.4608 14.0655 11.1355 15.3428 11.0632 16.7847C10.9789 18.2708 10.9789 22.7251 11.0632 24.2113C11.1315 25.6532 11.4608 26.9304 12.5169 27.9828C13.573 29.0351 14.846 29.3644 16.2876 29.4367C17.7733 29.5211 22.2267 29.5211 23.7124 29.4367C25.154 29.3685 26.431 29.0391 27.4831 27.9828C28.5352 26.9304 28.8645 25.6532 28.9368 24.2113C29.0211 22.7251 29.0211 18.2749 28.9368 16.7887ZM20.0001 23.4601C21.6333 23.4601 22.9573 22.1358 22.9573 20.5023C22.9573 18.8687 21.6333 17.5445 20.0001 17.5445C18.3669 17.5445 17.043 18.8687 17.043 20.5023C17.043 22.1358 18.3669 23.4601 20.0001 23.4601Z" fill="#00A5CF"/>
</svg>
