<svg width="40" height="41" viewBox="0 0 40 41" fill="none" xmlns="http://www.w3.org/2000/svg">
<path d="M27 11.5C27.5304 11.5 28.0391 11.7107 28.4142 12.0858C28.7893 12.4609 29 12.9696 29 13.5V27.5C29 28.0304 28.7893 28.5391 28.4142 28.9142C28.0391 29.2893 27.5304 29.5 27 29.5H13C12.4696 29.5 11.9609 29.2893 11.5858 28.9142C11.2107 28.5391 11 28.0304 11 27.5V13.5C11 12.9696 11.2107 12.4609 11.5858 12.0858C11.9609 11.7107 12.4696 11.5 13 11.5H27ZM26.5 27V21.7C26.5 20.8354 26.1565 20.0062 25.5452 19.3948C24.9338 18.7835 24.1046 18.44 23.24 18.44C22.39 18.44 21.4 18.96 20.92 19.74V18.63H18.13V27H20.92V22.07C20.92 21.3 21.54 20.67 22.31 20.67C22.6813 20.67 23.0374 20.8175 23.2999 21.0801C23.5625 21.3426 23.71 21.6987 23.71 22.07V27H26.5ZM14.88 17.06C15.3256 17.06 15.7529 16.883 16.0679 16.5679C16.383 16.2529 16.56 15.8256 16.56 15.38C16.56 14.45 15.81 13.69 14.88 13.69C14.4318 13.69 14.0019 13.8681 13.685 14.185C13.3681 14.5019 13.19 14.9318 13.19 15.38C13.19 16.31 13.95 17.06 14.88 17.06ZM16.27 27V18.63H13.5V27H16.27Z" fill="#00A5CF"/>
</svg>
