<svg width="24" height="24" viewBox="0 0 24 24" fill="none" xmlns="http://www.w3.org/2000/svg">
<mask id="mask0_1022_2134" style="mask-type:alpha" maskUnits="userSpaceOnUse" x="0" y="0" width="24" height="24">
<rect width="24" height="24" fill="#D9D9D9"/>
</mask>
<g mask="url(#mask0_1022_2134)">
<path d="M12 13.5385C12.4218 13.5385 12.7773 13.3939 13.0663 13.1048C13.3554 12.8158 13.5 12.4603 13.5 12.0385C13.5 11.6167 13.3554 11.2612 13.0663 10.972C12.7773 10.683 12.4218 10.5385 12 10.5385C11.5782 10.5385 11.2228 10.683 10.9338 10.972C10.6446 11.2612 10.5 11.6167 10.5 12.0385C10.5 12.4603 10.6446 12.8158 10.9338 13.1048C11.2228 13.3939 11.5782 13.5385 12 13.5385ZM8.5 16.923H15.5V16.7712C15.5 16.4609 15.4173 16.1968 15.252 15.9788C15.0865 15.7609 14.8634 15.5878 14.5828 15.4595C14.1879 15.289 13.7741 15.157 13.3413 15.0635C12.9086 14.9698 12.4615 14.923 12 14.923C11.5385 14.923 11.0914 14.9698 10.6588 15.0635C10.2259 15.157 9.81208 15.289 9.41725 15.4595C9.13658 15.5878 8.9135 15.7609 8.748 15.9788C8.58267 16.1968 8.5 16.4609 8.5 16.7712V16.923ZM17.3845 21H6.6155C6.15517 21 5.77083 20.8458 5.4625 20.5375C5.15417 20.2292 5 19.8448 5 19.3845V4.6155C5 4.15517 5.15417 3.77083 5.4625 3.4625C5.77083 3.15417 6.15517 3 6.6155 3H13.577L19 8.423V19.3845C19 19.8448 18.8458 20.2292 18.5375 20.5375C18.2292 20.8458 17.8448 21 17.3845 21ZM17.3845 20C17.5385 20 17.6796 19.9359 17.8077 19.8078C17.9359 19.6796 18 19.5385 18 19.3845V8.85L13.15 4H6.6155C6.4615 4 6.32042 4.06408 6.19225 4.19225C6.06408 4.32042 6 4.4615 6 4.6155V19.3845C6 19.5385 6.06408 19.6796 6.19225 19.8078C6.32042 19.9359 6.4615 20 6.6155 20H17.3845Z" fill="white"/>
</g>
</svg>
