<svg width="25" height="24" viewBox="0 0 25 24" fill="none" xmlns="http://www.w3.org/2000/svg">
<mask id="mask0_1022_4993" style="mask-type:alpha" maskUnits="userSpaceOnUse" x="0" y="0" width="25" height="24">
<rect x="0.666504" width="24" height="24" fill="#D9D9D9"/>
</mask>
<g mask="url(#mask0_1022_4993)">
<path d="M10.6664 14V9.99999H14.6664V14H10.6664ZM11.6664 13H13.6664V11H11.6664V13ZM10.1664 19.5385V18H8.28193C7.8216 18 7.43726 17.8458 7.12893 17.5375C6.8206 17.2292 6.66643 16.8448 6.66643 16.3845V14.5H5.12793V13.5H6.66643V10.5H5.12793V9.49999H6.66643V7.61549C6.66643 7.15515 6.8206 6.77082 7.12893 6.46249C7.43726 6.15415 7.8216 5.99999 8.28193 5.99999H10.1664V4.46149H11.1664V5.99999H14.1664V4.46149H15.1664V5.99999H17.0509C17.5113 5.99999 17.8956 6.15415 18.2039 6.46249C18.5123 6.77082 18.6664 7.15515 18.6664 7.61549V9.49999H20.2049V10.5H18.6664V13.5H20.2049V14.5H18.6664V16.3845C18.6664 16.8448 18.5123 17.2292 18.2039 17.5375C17.8956 17.8458 17.5113 18 17.0509 18H15.1664V19.5385H14.1664V18H11.1664V19.5385H10.1664ZM17.0509 17C17.2049 17 17.346 16.9359 17.4742 16.8077C17.6023 16.6796 17.6664 16.5385 17.6664 16.3845V7.61549C17.6664 7.46149 17.6023 7.3204 17.4742 7.19224C17.346 7.06407 17.2049 6.99999 17.0509 6.99999H8.28193C8.12793 6.99999 7.98685 7.06407 7.85868 7.19224C7.73051 7.3204 7.66643 7.46149 7.66643 7.61549V16.3845C7.66643 16.5385 7.73051 16.6796 7.85868 16.8077C7.98685 16.9359 8.12793 17 8.28193 17H17.0509Z" fill="white"/>
</g>
</svg>
