<svg width="41" height="40" viewBox="0 0 41 40" fill="none" xmlns="http://www.w3.org/2000/svg">
<mask id="mask0_234_2559" style="mask-type:alpha" maskUnits="userSpaceOnUse" x="0" y="0" width="41" height="40">
<rect x="0.5" width="40" height="40" fill="#D9D9D9"/>
</mask>
<g mask="url(#mask0_234_2559)">
<path d="M20.5002 33.1413C19.8849 33.1413 19.355 32.9622 18.9106 32.6042C18.4661 32.2464 18.2054 31.7865 18.1285 31.2246H17.1668C16.7202 31.2246 16.3307 31.0583 15.9985 30.7258C15.6663 30.3936 15.5002 30.0042 15.5002 29.5575V24.5383C13.7757 23.5833 12.4418 22.281 11.4985 20.6312C10.5552 18.9818 10.0835 17.2436 10.0835 15.4167C10.0835 12.5042 11.0916 10.04 13.1077 8.02417C15.1235 6.00806 17.5877 5 20.5002 5C23.4127 5 25.8768 6.00806 27.8927 8.02417C29.9088 10.04 30.9168 12.5042 30.9168 15.4167C30.9168 17.2564 30.4452 18.9978 29.5018 20.6408C28.5585 22.2842 27.2246 23.5833 25.5002 24.5383V29.5575C25.5002 30.0042 25.334 30.3936 25.0018 30.7258C24.6696 31.0583 24.2802 31.2246 23.8335 31.2246H22.8718C22.7949 31.7865 22.5342 32.2464 22.0897 32.6042C21.6453 32.9622 21.1154 33.1413 20.5002 33.1413ZM17.1668 29.5575H23.8335V27.9296H17.1668V29.5575ZM17.1668 26.6475H23.8335V25H17.1668V26.6475ZM16.8335 23.3333H19.7631V18.1283L16.2885 14.6538L17.3335 13.6092L20.5002 16.7758L23.6668 13.6092L24.7118 14.6538L21.2372 18.1283V23.3333H24.1668C25.6668 22.6111 26.8891 21.5486 27.8335 20.1458C28.7779 18.7431 29.2502 17.1667 29.2502 15.4167C29.2502 12.9722 28.4029 10.9028 26.7085 9.20833C25.0141 7.51389 22.9446 6.66667 20.5002 6.66667C18.0557 6.66667 15.9863 7.51389 14.2918 9.20833C12.5974 10.9028 11.7502 12.9722 11.7502 15.4167C11.7502 17.1667 12.2224 18.7431 13.1668 20.1458C14.1113 21.5486 15.3335 22.6111 16.8335 23.3333Z" fill="white"/>
</g>
</svg>
