<svg width="41" height="40" viewBox="0 0 41 40" fill="none" xmlns="http://www.w3.org/2000/svg">
<mask id="mask0_234_2561" style="mask-type:alpha" maskUnits="userSpaceOnUse" x="0" y="0" width="41" height="40">
<rect x="0.5" width="40" height="40" fill="#D9D9D9"/>
</mask>
<g mask="url(#mask0_234_2561)">
<path d="M2.16699 29.2951V27.856C2.16699 26.8324 2.71394 25.9829 3.80783 25.3076C4.90199 24.6326 6.31019 24.2951 8.03241 24.2951C8.28658 24.2951 8.55894 24.3074 8.84949 24.3318C9.14033 24.3565 9.44921 24.3967 9.77616 24.4522C9.51532 24.9072 9.32505 25.374 9.20533 25.8526C9.08588 26.3312 9.02616 26.811 9.02616 27.2918V29.2951H2.16699ZM12.167 29.2951V27.4201C12.167 26.7485 12.362 26.1344 12.752 25.5781C13.142 25.0219 13.7173 24.5408 14.4778 24.1347C15.2387 23.7289 16.1249 23.4244 17.1366 23.2214C18.1482 23.0183 19.2652 22.9168 20.4874 22.9168C21.7332 22.9168 22.862 23.0183 23.8737 23.2214C24.8853 23.4244 25.7716 23.7289 26.5324 24.1347C27.293 24.5408 27.8667 25.0219 28.2537 25.5781C28.6403 26.1344 28.8337 26.7485 28.8337 27.4201V29.2951H12.167ZM31.9745 29.2951V27.3014C31.9745 26.7697 31.9163 26.2687 31.7999 25.7985C31.6835 25.3282 31.5089 24.8794 31.2762 24.4522C31.6242 24.3967 31.9367 24.3565 32.2137 24.3318C32.4903 24.3074 32.7525 24.2951 33.0003 24.2951C34.7225 24.2951 36.1253 24.6311 37.2087 25.3031C38.292 25.975 38.8337 26.826 38.8337 27.856V29.2951H31.9745ZM13.8816 27.6285H27.1287V27.276C27.0645 26.4851 26.4164 25.8387 25.1845 25.3368C23.9528 24.8346 22.3914 24.5835 20.5003 24.5835C18.6092 24.5835 17.0478 24.8346 15.8162 25.3368C14.5842 25.8387 13.9394 26.4851 13.8816 27.276V27.6285ZM8.02366 22.7243C7.36921 22.7243 6.81171 22.4921 6.35116 22.0276C5.89088 21.5632 5.66074 21.0049 5.66074 20.3526C5.66074 19.7074 5.89296 19.1561 6.35741 18.6989C6.82185 18.2417 7.38019 18.0131 8.03241 18.0131C8.67769 18.0131 9.23435 18.2417 9.70241 18.6989C10.1702 19.1561 10.4041 19.7106 10.4041 20.3622C10.4041 20.9947 10.176 21.5465 9.71991 22.0176C9.26352 22.4887 8.6981 22.7243 8.02366 22.7243ZM33.0003 22.7243C32.3614 22.7243 31.8064 22.4887 31.3353 22.0176C30.8642 21.5465 30.6287 20.9947 30.6287 20.3622C30.6287 19.7106 30.8642 19.1561 31.3353 18.6989C31.8064 18.2417 32.3635 18.0131 33.0066 18.0131C33.6691 18.0131 34.2289 18.2417 34.6862 18.6989C35.1434 19.1561 35.372 19.7074 35.372 20.3526C35.372 21.0049 35.1448 21.5632 34.6903 22.0276C34.2356 22.4921 33.6723 22.7243 33.0003 22.7243ZM20.5116 21.6668C19.4999 21.6668 18.6362 21.3115 17.9203 20.601C17.2045 19.8907 16.8466 19.0281 16.8466 18.0131C16.8466 16.9778 17.2017 16.11 17.912 15.4097C18.6225 14.7092 19.4853 14.3589 20.5003 14.3589C21.5356 14.3589 22.4034 14.7081 23.1037 15.4064C23.8039 16.1044 24.1541 16.9696 24.1541 18.0018C24.1541 19.0135 23.805 19.8772 23.107 20.5931C22.4089 21.3089 21.5438 21.6668 20.5116 21.6668ZM20.5162 20.0001C21.0634 20.0001 21.5287 19.8031 21.912 19.4089C22.2956 19.0144 22.4874 18.5437 22.4874 17.9968C22.4874 17.4499 22.297 16.9846 21.9162 16.601C21.5353 16.2174 21.0634 16.0256 20.5003 16.0256C19.9639 16.0256 19.4987 16.2161 19.1045 16.5972C18.7103 16.9781 18.5132 17.45 18.5132 18.0131C18.5132 18.5492 18.7103 19.0144 19.1045 19.4089C19.4987 19.8031 19.9692 20.0001 20.5162 20.0001Z" fill="white"/>
</g>
</svg>
