<svg width="41" height="40" viewBox="0 0 41 40" fill="none" xmlns="http://www.w3.org/2000/svg">
<mask id="mask0_234_2563" style="mask-type:alpha" maskUnits="userSpaceOnUse" x="0" y="0" width="41" height="40">
<rect x="0.5" width="40" height="40" fill="#D9D9D9"/>
</mask>
<g mask="url(#mask0_234_2563)">
<path d="M17.0413 22.1283L18.3393 17.8271L14.9226 15.3204H19.1922L20.4997 10.9742L21.8072 15.3204H26.0768L22.6505 17.8271L23.9484 22.1283L20.4997 19.4583L17.0413 22.1283ZM12.1663 35.7692V24.7854C11.1108 23.7468 10.2913 22.531 9.70801 21.1379C9.12467 19.7446 8.83301 18.2542 8.83301 16.6667C8.83301 13.4144 9.9644 10.6569 12.2272 8.39417C14.49 6.13139 17.2475 5 20.4997 5C23.7519 5 26.5094 6.13139 28.7722 8.39417C31.035 10.6569 32.1663 13.4144 32.1663 16.6667C32.1663 18.2542 31.8747 19.7446 31.2913 21.1379C30.708 22.531 29.8886 23.7468 28.833 24.7854V35.7692L20.4997 33.2692L12.1663 35.7692ZM20.4997 26.6667C23.2775 26.6667 25.6386 25.6944 27.583 23.75C29.5275 21.8056 30.4997 19.4444 30.4997 16.6667C30.4997 13.8889 29.5275 11.5278 27.583 9.58333C25.6386 7.63889 23.2775 6.66667 20.4997 6.66667C17.7219 6.66667 15.3608 7.63889 13.4163 9.58333C11.4719 11.5278 10.4997 13.8889 10.4997 16.6667C10.4997 19.4444 11.4719 21.8056 13.4163 23.75C15.3608 25.6944 17.7219 26.6667 20.4997 26.6667ZM13.833 33.4071L20.4997 31.5383L27.1663 33.4071V26.1892C26.2369 26.8728 25.2043 27.4011 24.0684 27.7742C22.9329 28.1469 21.7433 28.3333 20.4997 28.3333C19.2561 28.3333 18.0665 28.1469 16.9309 27.7742C15.7951 27.4011 14.7625 26.8728 13.833 26.1892V33.4071Z" fill="white"/>
</g>
</svg>
