<svg width="64" height="64" viewBox="0 0 64 64" fill="none" xmlns="http://www.w3.org/2000/svg">
<mask id="mask0_1022_4709" style="mask-type:alpha" maskUnits="userSpaceOnUse" x="0" y="0" width="64" height="64">
<rect width="64" height="64" fill="#D9D9D9"/>
</mask>
<g mask="url(#mask0_1022_4709)">
<path d="M17.3333 50.6667C14.0066 50.6667 11.1751 49.5098 8.83865 47.196C6.50176 44.8827 5.33331 42.0549 5.33331 38.7127C5.33331 35.554 6.42042 32.8156 8.59465 30.4973C10.7693 28.1796 13.3233 26.9333 16.2566 26.7587C16.8549 22.8751 18.6411 19.6667 21.6153 17.1333C24.5895 14.6 28.0511 13.3333 32 13.3333C36.4573 13.3333 40.2382 14.8858 43.3427 17.9907C46.4475 21.0951 48 24.876 48 29.3333V32H49.6413C52.1951 32.0822 54.3378 33.0198 56.0693 34.8127C57.8009 36.606 58.6666 38.7796 58.6666 41.3333C58.6666 43.9489 57.782 46.1582 56.0126 47.9613C54.2433 49.7649 52.0511 50.6667 49.436 50.6667H34.9746C33.7471 50.6667 32.7222 50.2556 31.9 49.4333C31.0778 48.6111 30.6666 47.5862 30.6666 46.3587V30.882L25.0666 36.4513L23.1793 34.6153L32 25.7947L40.8206 34.6153L38.9333 36.4513L33.3333 30.882V46.3587C33.3333 46.7693 33.5042 47.1456 33.846 47.4873C34.1878 47.8291 34.564 48 34.9746 48H49.3333C51.2 48 52.7778 47.3556 54.0666 46.0667C55.3555 44.7778 56 43.2 56 41.3333C56 39.4667 55.3555 37.8889 54.0666 36.6C52.7778 35.3111 51.2 34.6667 49.3333 34.6667H45.3333V29.3333C45.3333 25.6444 44.0333 22.5 41.4333 19.9C38.8333 17.3 35.6889 16 32 16C28.3111 16 25.1666 17.3 22.5666 19.9C19.9666 22.5 18.6666 25.6444 18.6666 29.3333H17.2306C14.7555 29.3333 12.5982 30.2444 10.7586 32.0667C8.91954 33.8889 7.99998 36.0889 7.99998 38.6667C7.99998 41.2444 8.91109 43.4444 10.7333 45.2667C12.5555 47.0889 14.7555 48 17.3333 48H24V50.6667H17.3333Z" fill="white"/>
<path d="M17.3333 50.6667C14.0066 50.6667 11.1751 49.5098 8.83865 47.196C6.50176 44.8827 5.33331 42.0549 5.33331 38.7127C5.33331 35.554 6.42042 32.8156 8.59465 30.4973C10.7693 28.1796 13.3233 26.9333 16.2566 26.7587C16.8549 22.8751 18.6411 19.6667 21.6153 17.1333C24.5895 14.6 28.0511 13.3333 32 13.3333C36.4573 13.3333 40.2382 14.8858 43.3427 17.9907C46.4475 21.0951 48 24.876 48 29.3333V32H49.6413C52.1951 32.0822 54.3378 33.0198 56.0693 34.8127C57.8009 36.606 58.6666 38.7796 58.6666 41.3333C58.6666 43.9489 57.782 46.1582 56.0126 47.9613C54.2433 49.7649 52.0511 50.6667 49.436 50.6667H34.9746C33.7471 50.6667 32.7222 50.2556 31.9 49.4333C31.0778 48.6111 30.6666 47.5862 30.6666 46.3587V30.882L25.0666 36.4513L23.1793 34.6153L32 25.7947L40.8206 34.6153L38.9333 36.4513L33.3333 30.882V46.3587C33.3333 46.7693 33.5042 47.1456 33.846 47.4873C34.1878 47.8291 34.564 48 34.9746 48H49.3333C51.2 48 52.7778 47.3556 54.0666 46.0667C55.3555 44.7778 56 43.2 56 41.3333C56 39.4667 55.3555 37.8889 54.0666 36.6C52.7778 35.3111 51.2 34.6667 49.3333 34.6667H45.3333V29.3333C45.3333 25.6444 44.0333 22.5 41.4333 19.9C38.8333 17.3 35.6889 16 32 16C28.3111 16 25.1666 17.3 22.5666 19.9C19.9666 22.5 18.6666 25.6444 18.6666 29.3333H17.2306C14.7555 29.3333 12.5982 30.2444 10.7586 32.0667C8.91954 33.8889 7.99998 36.0889 7.99998 38.6667C7.99998 41.2444 8.91109 43.4444 10.7333 45.2667C12.5555 47.0889 14.7555 48 17.3333 48H24V50.6667H17.3333Z" fill="#212121" fill-opacity="0.8"/>
</g>
</svg>
