<svg width="80" height="80" viewBox="0 0 80 80" fill="none" xmlns="http://www.w3.org/2000/svg">
<mask id="mask0_1022_4798" style="mask-type:alpha" maskUnits="userSpaceOnUse" x="0" y="0" width="80" height="80">
<rect width="80" height="80" fill="#D9D9D9"/>
</mask>
<g mask="url(#mask0_1022_4798)">
<path d="M16.6667 63.3334C14.7861 63.3334 13.205 62.6923 11.9233 61.4101C10.6411 60.1284 10 58.5473 10 56.6667C10 54.7862 10.6411 53.2051 11.9233 51.9234C13.205 50.6412 14.7861 50.0001 16.6667 50.0001H63.3333C65.2139 50.0001 66.795 50.6412 68.0767 51.9234C69.3589 53.2051 70 54.7862 70 56.6667C70 58.5473 69.3589 60.1284 68.0767 61.4101C66.795 62.6923 65.2139 63.3334 63.3333 63.3334H16.6667ZM16.6667 60.0001H63.3333C64.2778 60.0001 65.0694 59.6806 65.7083 59.0417C66.3472 58.4029 66.6667 57.6112 66.6667 56.6667C66.6667 55.7223 66.3472 54.9306 65.7083 54.2917C65.0694 53.6529 64.2778 53.3334 63.3333 53.3334H16.6667C15.7222 53.3334 14.9306 53.6529 14.2917 54.2917C13.6528 54.9306 13.3333 55.7223 13.3333 56.6667C13.3333 57.6112 13.6528 58.4029 14.2917 59.0417C14.9306 59.6806 15.7222 60.0001 16.6667 60.0001ZM39.2042 43.3334C38.4486 43.3334 37.8153 43.0779 37.3042 42.5667C36.7936 42.0556 36.5383 41.4223 36.5383 40.6667V19.3317C36.5383 18.5762 36.7939 17.9431 37.305 17.4326C37.8161 16.922 38.4494 16.6667 39.205 16.6667H60.54C61.2956 16.6667 61.9286 16.9223 62.4392 17.4334C62.9497 17.9445 63.205 18.5779 63.205 19.3334V40.6676C63.205 41.4237 62.9494 42.057 62.4383 42.5676C61.9272 43.0781 61.2939 43.3334 60.5383 43.3334H39.2042ZM39.8717 40.0001H59.8717V20.0001H39.8717V40.0001ZM10 38.2951V35.0192H29.8142V38.2951H10ZM43.205 28.3334H56.5383V25.0192H43.205V28.3334ZM16.6667 28.3334H29.8142V25.0192H16.6667V28.3334Z" fill="white"/>
</g>
</svg>
