<svg width="64" height="64" viewBox="0 0 64 64" fill="none" xmlns="http://www.w3.org/2000/svg">
<mask id="mask0_1022_4723" style="mask-type:alpha" maskUnits="userSpaceOnUse" x="0" y="0" width="64" height="64">
<rect width="64" height="64" fill="#D9D9D9"/>
</mask>
<g mask="url(#mask0_1022_4723)">
<path d="M8 50.6667V46.6667H13.3333V17.6413C13.3333 16.4564 13.7551 15.4422 14.5987 14.5987C15.4422 13.7551 16.4564 13.3333 17.6413 13.3333H53.3333V16H17.6413C17.1627 16 16.7693 16.1538 16.4613 16.4613C16.1538 16.7693 16 17.1627 16 17.6413V46.6667H30.6153V50.6667H8ZM40.154 50.6667C39.5438 50.6667 39.0322 50.4602 38.6193 50.0473C38.2064 49.6344 38 49.1229 38 48.5127V24.5127C38 23.9024 38.2064 23.3909 38.6193 22.978C39.0322 22.5651 39.5438 22.3587 40.154 22.3587H53.8973C54.5076 22.3587 55.0191 22.5651 55.432 22.978C55.8449 23.3909 56.0513 23.9024 56.0513 24.5127V48.5127C56.0513 49.1229 55.8449 49.6344 55.432 50.0473C55.0191 50.4602 54.5076 50.6667 53.8973 50.6667H40.154ZM40.6667 46.6667H53.3847V25.0253H40.6667V46.6667Z" fill="white"/>
<path d="M8 50.6667V46.6667H13.3333V17.6413C13.3333 16.4564 13.7551 15.4422 14.5987 14.5987C15.4422 13.7551 16.4564 13.3333 17.6413 13.3333H53.3333V16H17.6413C17.1627 16 16.7693 16.1538 16.4613 16.4613C16.1538 16.7693 16 17.1627 16 17.6413V46.6667H30.6153V50.6667H8ZM40.154 50.6667C39.5438 50.6667 39.0322 50.4602 38.6193 50.0473C38.2064 49.6344 38 49.1229 38 48.5127V24.5127C38 23.9024 38.2064 23.3909 38.6193 22.978C39.0322 22.5651 39.5438 22.3587 40.154 22.3587H53.8973C54.5076 22.3587 55.0191 22.5651 55.432 22.978C55.8449 23.3909 56.0513 23.9024 56.0513 24.5127V48.5127C56.0513 49.1229 55.8449 49.6344 55.432 50.0473C55.0191 50.4602 54.5076 50.6667 53.8973 50.6667H40.154ZM40.6667 46.6667H53.3847V25.0253H40.6667V46.6667Z" fill="#212121" fill-opacity="0.8"/>
</g>
</svg>
