<svg width="64" height="64" viewBox="0 0 64 64" fill="none" xmlns="http://www.w3.org/2000/svg">
<mask id="mask0_1022_4681" style="mask-type:alpha" maskUnits="userSpaceOnUse" x="0" y="0" width="64" height="64">
<rect width="64" height="64" fill="#D9D9D9"/>
</mask>
<g mask="url(#mask0_1022_4681)">
<path d="M18.6666 48C14.9631 48 11.8149 46.4459 9.22198 43.3376C6.62954 40.2293 5.33331 36.4549 5.33331 32.0144C5.33331 27.5739 6.62954 23.7947 9.22198 20.6768C11.8149 17.5589 14.9631 16 18.6666 16H45.3333C49.0369 16 52.1851 17.5541 54.778 20.6624C57.3704 23.7707 58.6666 27.5451 58.6666 31.9856C58.6666 36.4261 57.3704 40.2053 54.778 43.3232C52.1851 46.4411 49.0369 48 45.3333 48H18.6666ZM18.6666 44.8H24H40H45.3333C48.2666 44.8 50.7778 43.5467 52.8666 41.04C54.9555 38.5333 56 35.52 56 32C56 28.48 54.9555 25.4667 52.8666 22.96C50.7778 20.4533 48.2666 19.2 45.3333 19.2H40H24H18.6666C15.7333 19.2 13.2222 20.4533 11.1333 22.96C9.04442 25.4667 7.99998 28.48 7.99998 32C7.99998 35.52 9.04442 38.5333 11.1333 41.04C13.2222 43.5467 15.7333 44.8 18.6666 44.8Z" fill="white"/>
<path d="M18.6666 48C14.9631 48 11.8149 46.4459 9.22198 43.3376C6.62954 40.2293 5.33331 36.4549 5.33331 32.0144C5.33331 27.5739 6.62954 23.7947 9.22198 20.6768C11.8149 17.5589 14.9631 16 18.6666 16H45.3333C49.0369 16 52.1851 17.5541 54.778 20.6624C57.3704 23.7707 58.6666 27.5451 58.6666 31.9856C58.6666 36.4261 57.3704 40.2053 54.778 43.3232C52.1851 46.4411 49.0369 48 45.3333 48H18.6666ZM18.6666 44.8H24H40H45.3333C48.2666 44.8 50.7778 43.5467 52.8666 41.04C54.9555 38.5333 56 35.52 56 32C56 28.48 54.9555 25.4667 52.8666 22.96C50.7778 20.4533 48.2666 19.2 45.3333 19.2H40H24H18.6666C15.7333 19.2 13.2222 20.4533 11.1333 22.96C9.04442 25.4667 7.99998 28.48 7.99998 32C7.99998 35.52 9.04442 38.5333 11.1333 41.04C13.2222 43.5467 15.7333 44.8 18.6666 44.8Z" fill="#212121" fill-opacity="0.8"/>
<path d="M34.9345 26.9896C35.6677 26.4371 35.8141 25.3948 35.2616 24.662C34.7091 23.9288 33.6672 23.7823 32.934 24.3348C32.2974 24.8147 32.1038 25.6637 32.4257 26.3589L28.8209 31.5914C28.2396 32.4349 27.318 32.9379 26.2923 32.9711C25.2898 33.004 24.3585 32.5743 23.7422 31.7939C23.726 31.7736 23.7105 31.7529 23.6947 31.7323C23.1628 31.0263 22.9375 30.1559 23.0607 29.2807C23.1839 28.4055 23.6401 27.631 24.346 27.0988C25.4857 26.2405 27.0395 26.2066 28.2127 27.0147C28.5978 27.2802 29.1252 27.1829 29.3907 26.7974C29.6563 26.4124 29.5589 25.885 29.1735 25.6194C27.3984 24.3968 25.0486 24.4477 23.3262 25.7456C22.2589 26.5507 21.5688 27.7221 21.3829 29.0454C21.197 30.3687 21.5374 31.6851 22.3415 32.7521C22.3643 32.7819 22.3872 32.8118 22.4115 32.8428C23.3314 34.0079 24.6986 34.667 26.1831 34.667C26.2377 34.667 26.2923 34.6659 26.3469 34.6644C27.9158 34.6135 29.3262 33.8438 30.2154 32.5525L33.821 27.319C34.206 27.3455 34.6018 27.24 34.9341 26.9896H34.9345Z" fill="white"/>
<path d="M34.9345 26.9896C35.6677 26.4371 35.8141 25.3948 35.2616 24.662C34.7091 23.9288 33.6672 23.7823 32.934 24.3348C32.2974 24.8147 32.1038 25.6637 32.4257 26.3589L28.8209 31.5914C28.2396 32.4349 27.318 32.9379 26.2923 32.9711C25.2898 33.004 24.3585 32.5743 23.7422 31.7939C23.726 31.7736 23.7105 31.7529 23.6947 31.7323C23.1628 31.0263 22.9375 30.1559 23.0607 29.2807C23.1839 28.4055 23.6401 27.631 24.346 27.0988C25.4857 26.2405 27.0395 26.2066 28.2127 27.0147C28.5978 27.2802 29.1252 27.1829 29.3907 26.7974C29.6563 26.4124 29.5589 25.885 29.1735 25.6194C27.3984 24.3968 25.0486 24.4477 23.3262 25.7456C22.2589 26.5507 21.5688 27.7221 21.3829 29.0454C21.197 30.3687 21.5374 31.6851 22.3415 32.7521C22.3643 32.7819 22.3872 32.8118 22.4115 32.8428C23.3314 34.0079 24.6986 34.667 26.1831 34.667C26.2377 34.667 26.2923 34.6659 26.3469 34.6644C27.9158 34.6135 29.3262 33.8438 30.2154 32.5525L33.821 27.319C34.206 27.3455 34.6018 27.24 34.9341 26.9896H34.9345Z" fill="#212121" fill-opacity="0.8"/>
<path d="M41.7183 31.2457C41.6958 31.2162 41.6737 31.1871 41.6501 31.1572C40.6963 29.9493 39.262 29.2836 37.7144 29.3356C36.1455 29.3865 34.7355 30.1563 33.8459 31.4475L30.2403 36.6811C29.8552 36.6545 29.4595 36.76 29.1268 37.0104C28.3936 37.5629 28.2472 38.6052 28.7997 39.338C29.3522 40.0712 30.3945 40.2177 31.1273 39.6652C31.7639 39.1853 31.9575 38.3363 31.6355 37.6411L35.2404 32.4083C35.8216 31.5648 36.743 31.0617 37.769 31.0285C38.7755 30.995 39.7031 31.425 40.319 32.2054C40.3356 32.2264 40.3519 32.2475 40.3666 32.267C41.4646 33.7239 41.1725 35.8025 39.7153 36.9001C38.576 37.7587 37.0222 37.7927 35.8486 36.9842C35.4632 36.7187 34.9357 36.8157 34.6706 37.2015C34.405 37.5865 34.5024 38.1139 34.8878 38.3795C35.7442 38.9692 36.7341 39.2628 37.7229 39.2628C38.7836 39.2628 39.8433 38.925 40.7347 38.2533C42.9377 36.5933 43.3791 33.4506 41.7176 31.2457H41.7183Z" fill="white"/>
<path d="M41.7183 31.2457C41.6958 31.2162 41.6737 31.1871 41.6501 31.1572C40.6963 29.9493 39.262 29.2836 37.7144 29.3356C36.1455 29.3865 34.7355 30.1563 33.8459 31.4475L30.2403 36.6811C29.8552 36.6545 29.4595 36.76 29.1268 37.0104C28.3936 37.5629 28.2472 38.6052 28.7997 39.338C29.3522 40.0712 30.3945 40.2177 31.1273 39.6652C31.7639 39.1853 31.9575 38.3363 31.6355 37.6411L35.2404 32.4083C35.8216 31.5648 36.743 31.0617 37.769 31.0285C38.7755 30.995 39.7031 31.425 40.319 32.2054C40.3356 32.2264 40.3519 32.2475 40.3666 32.267C41.4646 33.7239 41.1725 35.8025 39.7153 36.9001C38.576 37.7587 37.0222 37.7927 35.8486 36.9842C35.4632 36.7187 34.9357 36.8157 34.6706 37.2015C34.405 37.5865 34.5024 38.1139 34.8878 38.3795C35.7442 38.9692 36.7341 39.2628 37.7229 39.2628C38.7836 39.2628 39.8433 38.925 40.7347 38.2533C42.9377 36.5933 43.3791 33.4506 41.7176 31.2457H41.7183Z" fill="#212121" fill-opacity="0.8"/>
</g>
</svg>
