<svg width="64" height="64" viewBox="0 0 64 64" fill="none" xmlns="http://www.w3.org/2000/svg">
<mask id="mask0_1022_4691" style="mask-type:alpha" maskUnits="userSpaceOnUse" x="0" y="0" width="64" height="64">
<rect width="64" height="64" fill="#D9D9D9"/>
</mask>
<g mask="url(#mask0_1022_4691)">
<path d="M8 30.6667V20.308C8 19.0804 8.41111 18.0556 9.23333 17.2333C10.0556 16.4111 11.0804 16 12.308 16H51.692C52.9196 16 53.9444 16.4111 54.7667 17.2333C55.5889 18.0556 56 19.0804 56 20.308V30.6667H53.3333V20.308C53.3333 19.8978 53.1624 19.5216 52.8207 19.1793C52.4789 18.8376 52.1027 18.6667 51.692 18.6667H12.308C11.8973 18.6667 11.5211 18.8376 11.1793 19.1793C10.8376 19.5216 10.6667 19.8978 10.6667 20.308V30.6667H8ZM12.308 50.6667C11.0804 50.6667 10.0556 50.2556 9.23333 49.4333C8.41111 48.6111 8 47.5864 8 46.3593V33.3333H10.6667V46.3593C10.6667 46.7696 10.8376 47.1456 11.1793 47.4873C11.5211 47.8291 11.8973 48 12.308 48H51.692C52.1027 48 52.4789 47.8291 52.8207 47.4873C53.1624 47.1456 53.3333 46.7696 53.3333 46.3593V33.3333H56V46.3593C56 47.5864 55.5889 48.6111 54.7667 49.4333C53.9444 50.2556 52.9196 50.6667 51.692 50.6667H12.308ZM8 33.3333V30.6667H21.3333C21.5831 30.6667 21.8191 30.7316 22.0413 30.8613C22.2636 30.9916 22.4344 31.1762 22.554 31.4153L26.8667 40.026L36.1433 23.3847C36.2633 23.1558 36.4293 22.996 36.6413 22.9053C36.8529 22.8147 37.0836 22.7693 37.3333 22.7693C37.5831 22.7693 37.8191 22.8147 38.0413 22.9053C38.2636 22.996 38.4344 23.166 38.554 23.4153L42.1793 30.6667H56V33.3333H41.846C41.4598 33.3333 41.0871 33.2282 40.728 33.018C40.3693 32.8078 40.096 32.5096 39.908 32.1233L37.2 26.744L27.872 43.282C27.752 43.5216 27.5809 43.7011 27.3587 43.8207C27.1364 43.9402 26.9007 44 26.6513 44C26.4016 44 26.1682 43.9351 25.9513 43.8053C25.734 43.6756 25.5656 43.4909 25.446 43.2513L20.4873 33.3333H8Z" fill="white"/>
<path d="M8 30.6667V20.308C8 19.0804 8.41111 18.0556 9.23333 17.2333C10.0556 16.4111 11.0804 16 12.308 16H51.692C52.9196 16 53.9444 16.4111 54.7667 17.2333C55.5889 18.0556 56 19.0804 56 20.308V30.6667H53.3333V20.308C53.3333 19.8978 53.1624 19.5216 52.8207 19.1793C52.4789 18.8376 52.1027 18.6667 51.692 18.6667H12.308C11.8973 18.6667 11.5211 18.8376 11.1793 19.1793C10.8376 19.5216 10.6667 19.8978 10.6667 20.308V30.6667H8ZM12.308 50.6667C11.0804 50.6667 10.0556 50.2556 9.23333 49.4333C8.41111 48.6111 8 47.5864 8 46.3593V33.3333H10.6667V46.3593C10.6667 46.7696 10.8376 47.1456 11.1793 47.4873C11.5211 47.8291 11.8973 48 12.308 48H51.692C52.1027 48 52.4789 47.8291 52.8207 47.4873C53.1624 47.1456 53.3333 46.7696 53.3333 46.3593V33.3333H56V46.3593C56 47.5864 55.5889 48.6111 54.7667 49.4333C53.9444 50.2556 52.9196 50.6667 51.692 50.6667H12.308ZM8 33.3333V30.6667H21.3333C21.5831 30.6667 21.8191 30.7316 22.0413 30.8613C22.2636 30.9916 22.4344 31.1762 22.554 31.4153L26.8667 40.026L36.1433 23.3847C36.2633 23.1558 36.4293 22.996 36.6413 22.9053C36.8529 22.8147 37.0836 22.7693 37.3333 22.7693C37.5831 22.7693 37.8191 22.8147 38.0413 22.9053C38.2636 22.996 38.4344 23.166 38.554 23.4153L42.1793 30.6667H56V33.3333H41.846C41.4598 33.3333 41.0871 33.2282 40.728 33.018C40.3693 32.8078 40.096 32.5096 39.908 32.1233L37.2 26.744L27.872 43.282C27.752 43.5216 27.5809 43.7011 27.3587 43.8207C27.1364 43.9402 26.9007 44 26.6513 44C26.4016 44 26.1682 43.9351 25.9513 43.8053C25.734 43.6756 25.5656 43.4909 25.446 43.2513L20.4873 33.3333H8Z" fill="#212121" fill-opacity="0.8"/>
</g>
</svg>
