<svg width="64" height="64" viewBox="0 0 64 64" fill="none" xmlns="http://www.w3.org/2000/svg">
<mask id="mask0_1022_4716" style="mask-type:alpha" maskUnits="userSpaceOnUse" x="0" y="0" width="64" height="64">
<rect width="64" height="64" fill="#D9D9D9"/>
</mask>
<g mask="url(#mask0_1022_4716)">
<path d="M23.8767 53.3333H13.3334C12.5845 53.3333 11.9529 53.076 11.4387 52.5613C10.924 52.0471 10.6667 51.4156 10.6667 50.6667V40.1233C12.1845 39.6789 13.4529 38.8387 14.472 37.6027C15.4907 36.3667 16 34.9436 16 33.3333C16 31.7231 15.4907 30.3 14.472 29.064C13.4529 27.828 12.1845 26.9878 10.6667 26.5433V16C10.6667 15.2511 10.924 14.6196 11.4387 14.1053C11.9529 13.5907 12.5845 13.3333 13.3334 13.3333H24C24.4787 11.8084 25.3198 10.5896 26.5234 9.67667C27.7265 8.76378 29.1076 8.30733 30.6667 8.30733C32.2258 8.30733 33.6069 8.76378 34.81 9.67667C36.0136 10.5896 36.8547 11.8084 37.3334 13.3333H48C48.7489 13.3333 49.3805 13.5907 49.8947 14.1053C50.4094 14.6196 50.6667 15.2511 50.6667 16V26.6667C52.1916 27.1453 53.4105 27.9864 54.3234 29.19C55.2362 30.3931 55.6927 31.7742 55.6927 33.3333C55.6927 34.8924 55.2362 36.2736 54.3234 37.4767C53.4105 38.6802 52.1916 39.5213 50.6667 40V50.6667C50.6667 51.4156 50.4094 52.0471 49.8947 52.5613C49.3805 53.076 48.7489 53.3333 48 53.3333H37.4567C36.978 51.7267 36.1156 50.436 34.8694 49.4613C33.6231 48.4871 32.2222 48 30.6667 48C29.1111 48 27.7102 48.4871 26.464 49.4613C25.2178 50.436 24.3554 51.7267 23.8767 53.3333ZM13.3334 50.6667H22.128C22.8871 48.8956 24.0598 47.564 25.646 46.672C27.2322 45.7796 28.9058 45.3333 30.6667 45.3333C32.4276 45.3333 34.1011 45.7796 35.6874 46.672C37.2736 47.564 38.4462 48.8956 39.2054 50.6667H48V37.6413H49.2307C50.5094 37.436 51.4616 36.9093 52.0874 36.0613C52.7127 35.2138 53.0254 34.3044 53.0254 33.3333C53.0254 32.3622 52.7127 31.4529 52.0874 30.6053C51.4616 29.7573 50.5094 29.2307 49.2307 29.0253H48V16H34.9747V14.7693C34.7694 13.4907 34.2427 12.5384 33.3947 11.9127C32.5471 11.2873 31.6378 10.9747 30.6667 10.9747C29.6956 10.9747 28.7862 11.2873 27.9387 11.9127C27.0907 12.5384 26.564 13.4907 26.3587 14.7693V16H13.3334V24.7387C14.9814 25.5249 16.2822 26.6976 17.236 28.2567C18.1898 29.8153 18.6667 31.5076 18.6667 33.3333C18.6667 35.1489 18.1898 36.836 17.236 38.3947C16.2822 39.9538 14.9814 41.1316 13.3334 41.928V50.6667Z" fill="white"/>
<path d="M23.8767 53.3333H13.3334C12.5845 53.3333 11.9529 53.076 11.4387 52.5613C10.924 52.0471 10.6667 51.4156 10.6667 50.6667V40.1233C12.1845 39.6789 13.4529 38.8387 14.472 37.6027C15.4907 36.3667 16 34.9436 16 33.3333C16 31.7231 15.4907 30.3 14.472 29.064C13.4529 27.828 12.1845 26.9878 10.6667 26.5433V16C10.6667 15.2511 10.924 14.6196 11.4387 14.1053C11.9529 13.5907 12.5845 13.3333 13.3334 13.3333H24C24.4787 11.8084 25.3198 10.5896 26.5234 9.67667C27.7265 8.76378 29.1076 8.30733 30.6667 8.30733C32.2258 8.30733 33.6069 8.76378 34.81 9.67667C36.0136 10.5896 36.8547 11.8084 37.3334 13.3333H48C48.7489 13.3333 49.3805 13.5907 49.8947 14.1053C50.4094 14.6196 50.6667 15.2511 50.6667 16V26.6667C52.1916 27.1453 53.4105 27.9864 54.3234 29.19C55.2362 30.3931 55.6927 31.7742 55.6927 33.3333C55.6927 34.8924 55.2362 36.2736 54.3234 37.4767C53.4105 38.6802 52.1916 39.5213 50.6667 40V50.6667C50.6667 51.4156 50.4094 52.0471 49.8947 52.5613C49.3805 53.076 48.7489 53.3333 48 53.3333H37.4567C36.978 51.7267 36.1156 50.436 34.8694 49.4613C33.6231 48.4871 32.2222 48 30.6667 48C29.1111 48 27.7102 48.4871 26.464 49.4613C25.2178 50.436 24.3554 51.7267 23.8767 53.3333ZM13.3334 50.6667H22.128C22.8871 48.8956 24.0598 47.564 25.646 46.672C27.2322 45.7796 28.9058 45.3333 30.6667 45.3333C32.4276 45.3333 34.1011 45.7796 35.6874 46.672C37.2736 47.564 38.4462 48.8956 39.2054 50.6667H48V37.6413H49.2307C50.5094 37.436 51.4616 36.9093 52.0874 36.0613C52.7127 35.2138 53.0254 34.3044 53.0254 33.3333C53.0254 32.3622 52.7127 31.4529 52.0874 30.6053C51.4616 29.7573 50.5094 29.2307 49.2307 29.0253H48V16H34.9747V14.7693C34.7694 13.4907 34.2427 12.5384 33.3947 11.9127C32.5471 11.2873 31.6378 10.9747 30.6667 10.9747C29.6956 10.9747 28.7862 11.2873 27.9387 11.9127C27.0907 12.5384 26.564 13.4907 26.3587 14.7693V16H13.3334V24.7387C14.9814 25.5249 16.2822 26.6976 17.236 28.2567C18.1898 29.8153 18.6667 31.5076 18.6667 33.3333C18.6667 35.1489 18.1898 36.836 17.236 38.3947C16.2822 39.9538 14.9814 41.1316 13.3334 41.928V50.6667Z" fill="#212121" fill-opacity="0.8"/>
</g>
</svg>
