<svg width="64" height="65" viewBox="0 0 64 65" fill="none" xmlns="http://www.w3.org/2000/svg">
<mask id="mask0_1022_6045" style="mask-type:alpha" maskUnits="userSpaceOnUse" x="0" y="0" width="64" height="65">
<rect y="0.5" width="64" height="64" fill="#D9D9D9"/>
</mask>
<g mask="url(#mask0_1022_6045)">
<path d="M32.0093 31.782C33.1964 31.782 34.2095 31.3593 35.0487 30.514C35.8882 29.6687 36.308 28.6524 36.308 27.4653C36.308 26.2782 35.8851 25.2649 35.0393 24.4253C34.194 23.5862 33.1778 23.1667 31.9907 23.1667C30.8035 23.1667 29.7904 23.5893 28.9513 24.4347C28.1118 25.28 27.692 26.2962 27.692 27.4833C27.692 28.6704 28.1149 29.6838 28.9607 30.5233C29.806 31.3624 30.8222 31.782 32.0093 31.782ZM32 52.972C37.012 48.6093 40.9744 44.1724 43.8873 39.6613C46.8002 35.1502 48.2567 31.2487 48.2567 27.9567C48.2567 23.078 46.7122 19.0513 43.6233 15.8767C40.5344 12.7024 36.66 11.1153 32 11.1153C27.34 11.1153 23.4655 12.7024 20.3767 15.8767C17.2878 19.0513 15.7433 23.078 15.7433 27.9567C15.7433 31.2487 17.1998 35.1502 20.1127 39.6613C23.0255 44.1724 26.988 48.6093 32 52.972ZM32 56.5513C25.7333 51.0096 21.0129 45.8411 17.8387 41.046C14.664 36.2513 13.0767 31.8882 13.0767 27.9567C13.0767 22.3153 14.9135 17.6622 18.5873 13.9973C22.2607 10.3324 26.7315 8.5 32 8.5C37.2684 8.5 41.7393 10.3324 45.4127 13.9973C49.0864 17.6622 50.9233 22.3153 50.9233 27.9567C50.9233 31.8882 49.336 36.2513 46.1613 41.046C42.9871 45.8411 38.2667 51.0096 32 56.5513Z" fill="white"/>
</g>
</svg>
