<svg width="80" height="80" viewBox="0 0 80 80" fill="none" xmlns="http://www.w3.org/2000/svg">
<mask id="mask0_1022_4790" style="mask-type:alpha" maskUnits="userSpaceOnUse" x="0" y="0" width="80" height="80">
<rect width="80" height="80" fill="#D9D9D9"/>
</mask>
<g mask="url(#mask0_1022_4790)">
<path d="M15.8784 64.8717V59.4876H25.955L17.3267 31.2692C15.8695 30.5642 14.7084 29.5556 13.8434 28.2434C12.9778 26.9317 12.545 25.4234 12.545 23.7184C12.545 21.4106 13.357 19.4448 14.9809 17.8209C16.6048 16.197 18.5706 15.3851 20.8784 15.3851C22.9167 15.3851 24.6656 16.0101 26.125 17.2601C27.5845 18.5101 28.562 20.1073 29.0575 22.0517H41.2625V17.0517C41.2625 16.5773 41.4217 16.1809 41.74 15.8626C42.0589 15.5442 42.4553 15.3851 42.9292 15.3851C43.3014 15.3851 43.6273 15.4962 43.9067 15.7184C44.1867 15.9406 44.3653 16.2312 44.4425 16.5901V17.4876L50.4934 11.8976C50.9506 11.4404 51.4625 11.1637 52.0292 11.0676C52.5953 10.9715 53.1475 11.0687 53.6859 11.3592L66.3017 17.2309C66.7117 17.4359 67.0203 17.7298 67.2275 18.1126C67.4348 18.4948 67.4423 18.8845 67.25 19.2817C67.045 19.6923 66.7512 19.952 66.3684 20.0609C65.9862 20.1698 65.5962 20.1281 65.1984 19.9359L52.5575 14.0517L44.5959 21.3851V26.0517L52.5575 33.2184L65.1984 27.3334C65.5962 27.1412 65.9895 27.1028 66.3784 27.2184C66.7673 27.3334 67.0578 27.5898 67.25 27.9876C67.455 28.3976 67.4509 28.7906 67.2375 29.1667C67.0237 29.5429 66.7117 29.8334 66.3017 30.0384L53.6859 35.9484C53.1475 36.2395 52.5953 36.3262 52.0292 36.2084C51.4625 36.0906 50.9506 35.8245 50.4934 35.4101L44.4425 29.9484V30.8459C44.3653 31.1792 44.1867 31.4634 43.9067 31.6984C43.6273 31.934 43.3014 32.0517 42.9292 32.0517C42.4553 32.0517 42.0589 31.8923 41.74 31.5734C41.4217 31.2551 41.2625 30.859 41.2625 30.3851V25.3851H29.0575C28.8909 26.1284 28.6142 26.8654 28.2275 27.5959C27.8409 28.327 27.4167 28.9362 26.955 29.4234L43.1092 59.4876H55.8784V64.8717H15.8784ZM20.8784 28.7184C22.25 28.7184 23.4262 28.2279 24.4067 27.2467C25.3878 26.2662 25.8784 25.0901 25.8784 23.7184C25.8784 22.3462 25.3878 21.1698 24.4067 20.1892C23.4262 19.2087 22.25 18.7184 20.8784 18.7184C19.5067 18.7184 18.3303 19.2087 17.3492 20.1892C16.3687 21.1698 15.8784 22.3462 15.8784 23.7184C15.8784 25.0901 16.3687 26.2662 17.3492 27.2467C18.3303 28.2279 19.5067 28.7184 20.8784 28.7184ZM29.455 59.4876H39.2884L24.1859 31.4101C23.8442 31.624 23.3614 31.8056 22.7375 31.9551C22.1137 32.1045 21.545 32.1367 21.0317 32.0517L29.455 59.4876Z" fill="white"/>
</g>
</svg>
