<svg width="64" height="65" viewBox="0 0 64 65" fill="none" xmlns="http://www.w3.org/2000/svg">
<mask id="mask0_1022_4183" style="mask-type:alpha" maskUnits="userSpaceOnUse" x="0" y="0" width="64" height="65">
<rect y="0.5" width="64" height="64" fill="#D9D9D9"/>
</mask>
<g mask="url(#mask0_1022_4183)">
<path d="M18.6666 43.1667H45.3333C48.2666 43.1667 50.7778 42.1222 52.8666 40.0333C54.9555 37.9445 56 35.4333 56 32.5C56 29.5667 54.9555 27.0556 52.8666 24.9667C50.7778 22.8778 48.2666 21.8333 45.3333 21.8333H18.6666C15.7333 21.8333 13.2222 22.8778 11.1333 24.9667C9.04442 27.0556 7.99998 29.5667 7.99998 32.5C7.99998 35.4333 9.04442 37.9445 11.1333 40.0333C13.2222 42.1222 15.7333 43.1667 18.6666 43.1667ZM25.3333 19.1667H38.6666V17.628C38.6666 17.1493 38.5129 16.7562 38.2053 16.4487C37.8973 16.1411 37.504 15.9873 37.0253 15.9873H26.9746C26.496 15.9873 26.1026 16.1411 25.7946 16.4487C25.4871 16.7562 25.3333 17.1493 25.3333 17.628V19.1667ZM18.6666 51.1667V45.8333C14.9742 45.8333 11.8289 44.5382 9.23065 41.948C6.63242 39.3578 5.33331 36.2125 5.33331 32.512C5.33331 28.8116 6.62954 25.6622 9.22198 23.064C11.8149 20.4658 14.9631 19.1667 18.6666 19.1667H22.6666V17.628C22.6666 16.4009 23.0778 15.3762 23.9 14.554C24.7222 13.7318 25.7471 13.3207 26.9746 13.3207H37.0253C38.2529 13.3207 39.2778 13.7318 40.1 14.554C40.9222 15.3762 41.3333 16.4009 41.3333 17.628V19.1667H45.3333C49.0369 19.1667 52.1851 20.4618 54.778 23.052C57.3704 25.6422 58.6666 28.7876 58.6666 32.488C58.6666 36.1885 57.3704 39.3378 54.778 41.936C52.1851 44.5342 49.0369 45.8333 45.3333 45.8333V51.1667H42.6666V45.8333H21.3333V51.1667H18.6666Z" fill="white"/>
</g>
</svg>
