<svg width="80" height="80" viewBox="0 0 80 80" fill="none" xmlns="http://www.w3.org/2000/svg">
<mask id="mask0_1022_4782" style="mask-type:alpha" maskUnits="userSpaceOnUse" x="0" y="0" width="80" height="80">
<rect width="80" height="80" fill="#D9D9D9"/>
</mask>
<g mask="url(#mask0_1022_4782)">
<path d="M53.3333 35.8975C54.0211 35.8975 54.6206 35.6422 55.1317 35.1317C55.6422 34.6206 55.8975 34.0211 55.8975 33.3333C55.8975 32.6456 55.6422 32.0461 55.1317 31.535C54.6206 31.0244 54.0211 30.7692 53.3333 30.7692C52.6456 30.7692 52.0461 31.0244 51.535 31.535C51.0244 32.0461 50.7692 32.6456 50.7692 33.3333C50.7692 34.0211 51.0244 34.6206 51.535 35.1317C52.0461 35.6422 52.6456 35.8975 53.3333 35.8975ZM26.6667 28.3333H43.3333V25H26.6667V28.3333ZM17.5 66.6667C15.8678 60.8461 14.2097 55.0717 12.5258 49.3433C10.8419 43.6144 10 37.7222 10 31.6667C10 27.4956 11.4572 23.9528 14.3717 21.0383C17.2861 18.1239 20.8289 16.6667 25 16.6667H43.3333C44.7733 14.7694 46.4753 13.1839 48.4392 11.91C50.4031 10.6367 52.59 10 55 10C55.4489 10 55.8389 10.1656 56.17 10.4967C56.5011 10.8278 56.6667 11.2178 56.6667 11.6667C56.6667 11.7861 56.6464 11.9058 56.6058 12.0258C56.5653 12.1453 56.5322 12.2583 56.5067 12.365C56.1133 13.3611 55.7981 14.3817 55.5608 15.4267C55.3236 16.4711 55.1067 17.5192 54.91 18.5708L64.6733 28.3333H70V45.8142L61.2242 48.705L55.8333 66.6667H43.3333V60H30V66.6667H17.5ZM20 63.3333H26.6667V56.6667H46.6667V63.3333H53.3333L58.5 46.1667L66.6667 43.4167V31.6667H63.3333L51.6667 20C51.6667 18.8889 51.7361 17.8194 51.875 16.7917C52.0139 15.7639 52.265 14.7436 52.6283 13.7308C51.0172 14.1753 49.6219 14.9606 48.4425 16.0867C47.2631 17.2128 46.31 18.5172 45.5833 20H25C21.7778 20 19.0278 21.1389 16.75 23.4167C14.4722 25.6944 13.3333 28.4444 13.3333 31.6667C13.3333 37.1111 14.0833 42.4306 15.5833 47.625C17.0833 52.8194 18.5556 58.0556 20 63.3333Z" fill="white"/>
</g>
</svg>
