<svg width="64" height="64" viewBox="0 0 64 64" fill="none" xmlns="http://www.w3.org/2000/svg">
<mask id="mask0_1022_4674" style="mask-type:alpha" maskUnits="userSpaceOnUse" x="0" y="0" width="64" height="64">
<rect width="64" height="64" fill="#D9D9D9"/>
</mask>
<g mask="url(#mask0_1022_4674)">
<path d="M15.0307 48.9693C12.836 46.764 11.1156 44.2127 9.86933 41.3153C8.62311 38.418 8 35.3129 8 32C8 28.6769 8.62311 25.5667 9.86933 22.6693C11.1156 19.772 12.836 17.2258 15.0307 15.0307L16.9333 16.9333C14.9778 18.8889 13.4444 21.1556 12.3333 23.7333C11.2222 26.3111 10.6667 29.0667 10.6667 32C10.6667 34.9778 11.2222 37.7556 12.3333 40.3333C13.4444 42.9111 14.9778 45.1556 16.9333 47.0667L15.0307 48.9693ZM22.564 41.436C21.3471 40.2085 20.3933 38.7905 19.7027 37.182C19.012 35.5736 18.6667 33.8462 18.6667 32C18.6667 30.1436 19.012 28.4111 19.7027 26.8027C20.3933 25.1942 21.3471 23.7813 22.564 22.564L24.4667 24.4667C23.4889 25.4444 22.7222 26.5778 22.1667 27.8667C21.6111 29.1556 21.3333 30.5333 21.3333 32C21.3333 33.4667 21.6111 34.8444 22.1667 36.1333C22.7222 37.4222 23.4889 38.5556 24.4667 39.5333L22.564 41.436ZM32 34.6667C31.2853 34.6667 30.6622 34.4009 30.1307 33.8693C29.5991 33.3378 29.3333 32.7147 29.3333 32C29.3333 31.2853 29.5991 30.6622 30.1307 30.1307C30.6622 29.5991 31.2853 29.3333 32 29.3333C32.7147 29.3333 33.3378 29.5991 33.8693 30.1307C34.4009 30.6622 34.6667 31.2853 34.6667 32C34.6667 32.7147 34.4009 33.3378 33.8693 33.8693C33.3378 34.4009 32.7147 34.6667 32 34.6667ZM41.436 41.436L39.5333 39.5333C40.5111 38.5556 41.2778 37.4222 41.8333 36.1333C42.3889 34.8444 42.6667 33.4667 42.6667 32C42.6667 30.5333 42.3889 29.1556 41.8333 27.8667C41.2778 26.5778 40.5111 25.4444 39.5333 24.4667L41.436 22.564C42.6529 23.7813 43.6067 25.1942 44.2973 26.8027C44.988 28.4111 45.3333 30.1436 45.3333 32C45.3333 33.8462 44.988 35.5736 44.2973 37.182C43.6067 38.7905 42.6529 40.2085 41.436 41.436ZM48.9693 48.9693L47.0667 47.0667C49.0222 45.1111 50.5556 42.8445 51.6667 40.2667C52.7778 37.6889 53.3333 34.9333 53.3333 32C53.3333 29.0564 52.7778 26.2958 51.6667 23.718C50.5556 21.1402 49.0222 18.8787 47.0667 16.9333L48.9693 15.0307C51.164 17.2258 52.8844 19.772 54.1307 22.6693C55.3769 25.5667 56 28.6769 56 32C56 35.3129 55.3769 38.418 54.1307 41.3153C52.8844 44.2127 51.164 46.764 48.9693 48.9693Z" fill="white"/>
<path d="M15.0307 48.9693C12.836 46.764 11.1156 44.2127 9.86933 41.3153C8.62311 38.418 8 35.3129 8 32C8 28.6769 8.62311 25.5667 9.86933 22.6693C11.1156 19.772 12.836 17.2258 15.0307 15.0307L16.9333 16.9333C14.9778 18.8889 13.4444 21.1556 12.3333 23.7333C11.2222 26.3111 10.6667 29.0667 10.6667 32C10.6667 34.9778 11.2222 37.7556 12.3333 40.3333C13.4444 42.9111 14.9778 45.1556 16.9333 47.0667L15.0307 48.9693ZM22.564 41.436C21.3471 40.2085 20.3933 38.7905 19.7027 37.182C19.012 35.5736 18.6667 33.8462 18.6667 32C18.6667 30.1436 19.012 28.4111 19.7027 26.8027C20.3933 25.1942 21.3471 23.7813 22.564 22.564L24.4667 24.4667C23.4889 25.4444 22.7222 26.5778 22.1667 27.8667C21.6111 29.1556 21.3333 30.5333 21.3333 32C21.3333 33.4667 21.6111 34.8444 22.1667 36.1333C22.7222 37.4222 23.4889 38.5556 24.4667 39.5333L22.564 41.436ZM32 34.6667C31.2853 34.6667 30.6622 34.4009 30.1307 33.8693C29.5991 33.3378 29.3333 32.7147 29.3333 32C29.3333 31.2853 29.5991 30.6622 30.1307 30.1307C30.6622 29.5991 31.2853 29.3333 32 29.3333C32.7147 29.3333 33.3378 29.5991 33.8693 30.1307C34.4009 30.6622 34.6667 31.2853 34.6667 32C34.6667 32.7147 34.4009 33.3378 33.8693 33.8693C33.3378 34.4009 32.7147 34.6667 32 34.6667ZM41.436 41.436L39.5333 39.5333C40.5111 38.5556 41.2778 37.4222 41.8333 36.1333C42.3889 34.8444 42.6667 33.4667 42.6667 32C42.6667 30.5333 42.3889 29.1556 41.8333 27.8667C41.2778 26.5778 40.5111 25.4444 39.5333 24.4667L41.436 22.564C42.6529 23.7813 43.6067 25.1942 44.2973 26.8027C44.988 28.4111 45.3333 30.1436 45.3333 32C45.3333 33.8462 44.988 35.5736 44.2973 37.182C43.6067 38.7905 42.6529 40.2085 41.436 41.436ZM48.9693 48.9693L47.0667 47.0667C49.0222 45.1111 50.5556 42.8445 51.6667 40.2667C52.7778 37.6889 53.3333 34.9333 53.3333 32C53.3333 29.0564 52.7778 26.2958 51.6667 23.718C50.5556 21.1402 49.0222 18.8787 47.0667 16.9333L48.9693 15.0307C51.164 17.2258 52.8844 19.772 54.1307 22.6693C55.3769 25.5667 56 28.6769 56 32C56 35.3129 55.3769 38.418 54.1307 41.3153C52.8844 44.2127 51.164 46.764 48.9693 48.9693Z" fill="#212121" fill-opacity="0.8"/>
</g>
</svg>
