<svg width="64" height="65" viewBox="0 0 64 65" fill="none" xmlns="http://www.w3.org/2000/svg">
<mask id="mask0_1022_3817" style="mask-type:alpha" maskUnits="userSpaceOnUse" x="0" y="0" width="64" height="65">
<rect y="0.5" width="64" height="64" fill="#D9D9D9"/>
</mask>
<g mask="url(#mask0_1022_3817)">
<path d="M32.2053 28.5V25.8333H45.128V28.5H32.2053ZM32.2053 18.4486V15.782H53.128V18.4486H32.2053ZM21.7433 53.8333C18.7727 53.8333 16.2522 52.7982 14.182 50.728C12.1118 48.6582 11.0767 46.1377 11.0767 43.1666C11.0767 41.3066 11.5433 39.5655 12.4767 37.9433C13.41 36.3211 14.7211 34.9853 16.41 33.936V16.5C16.41 14.9955 16.9229 13.7306 17.9487 12.7053C18.9744 11.6795 20.2393 11.1666 21.7433 11.1666C23.2478 11.1666 24.5129 11.6795 25.5387 12.7053C26.564 13.7306 27.0767 14.9955 27.0767 16.5V33.936C28.7655 34.9853 30.0767 36.3211 31.01 37.9433C31.9433 39.5655 32.41 41.3066 32.41 43.1666C32.41 46.1377 31.3751 48.6582 29.3053 50.728C27.2351 52.7982 24.7144 53.8333 21.7433 53.8333ZM13.7433 43.1666H29.7433C29.7433 41.8435 29.3887 40.5666 28.6793 39.336C27.97 38.1053 26.9504 37.0095 25.6207 36.0486L24.41 35.1666V16.5C24.41 15.7444 24.1544 15.1111 23.6433 14.6C23.1322 14.0888 22.4989 13.8333 21.7433 13.8333C20.9878 13.8333 20.3544 14.0888 19.8433 14.6C19.3322 15.1111 19.0767 15.7444 19.0767 16.5V35.1666L17.8667 36.0486C16.5369 37.0095 15.5173 38.1053 14.808 39.336C14.0982 40.5666 13.7433 41.8435 13.7433 43.1666Z" fill="white"/>
</g>
</svg>
