<svg width="64" height="65" viewBox="0 0 64 65" fill="none" xmlns="http://www.w3.org/2000/svg">
<mask id="mask0_1022_2020" style="mask-type:alpha" maskUnits="userSpaceOnUse" x="0" y="0" width="64" height="65">
<rect y="0.5" width="64" height="64" fill="#D9D9D9"/>
</mask>
<g mask="url(#mask0_1022_2020)">
<path d="M9.33329 45.8333H23.3433C22.0753 45.0435 20.9308 44.0846 19.91 42.9566C18.8895 41.8282 18.0666 40.5648 17.4413 39.1666H9.33329V45.8333ZM32 45.8333C35.6888 45.8333 38.8333 44.5333 41.4333 41.9333C44.0333 39.3333 45.3333 36.1888 45.3333 32.4999C45.3333 28.8111 44.0333 25.6666 41.4333 23.0666C38.8333 20.4666 35.6888 19.1666 32 19.1666C28.3111 19.1666 25.1666 20.4666 22.5666 23.0666C19.9666 25.6666 18.6666 28.8111 18.6666 32.4999C18.6666 36.1888 19.9666 39.3333 22.5666 41.9333C25.1666 44.5333 28.3111 45.8333 32 45.8333ZM46.5586 25.8333H54.6666V19.1666H40.6566C41.9246 19.9564 43.0691 20.9153 44.09 22.0433C45.1104 23.1717 45.9333 24.4351 46.5586 25.8333ZM6.66663 50.5513V34.4486H9.33329V36.4999H16.5586C16.3675 35.8502 16.2266 35.1946 16.136 34.5333C16.0453 33.8719 16 33.1942 16 32.4999C16 28.0426 17.5524 24.2617 20.6573 21.1573C23.7617 18.0524 27.5426 16.4999 32 16.4999H54.6666V14.4486H57.3333V30.5513H54.6666V28.4999H47.4413C47.6324 29.1497 47.7733 29.8053 47.864 30.4666C47.9546 31.1279 48 31.8057 48 32.4999C48 36.9573 46.4475 40.7382 43.3426 43.8426C40.2382 46.9475 36.4573 48.4999 32 48.4999H9.33329V50.5513H6.66663ZM32 38.3973C30.8751 38.3973 29.9273 38.0119 29.1566 37.2413C28.3855 36.4702 28 35.5222 28 34.3973C28 33.6826 28.1597 32.9535 28.4793 32.2099C28.7988 31.4664 29.3706 30.4691 30.1946 29.2179L31.9486 26.6026L33.754 29.2179C34.6326 30.5362 35.2266 31.5486 35.536 32.2553C35.8453 32.9615 36 33.6755 36 34.3973C36 35.5222 35.6144 36.4702 34.8433 37.2413C34.0726 38.0119 33.1248 38.3973 32 38.3973Z" fill="white"/>
</g>
</svg>
