<svg width="80" height="80" viewBox="0 0 80 80" fill="none" xmlns="http://www.w3.org/2000/svg">
<mask id="mask0_1022_1490" style="mask-type:alpha" maskUnits="userSpaceOnUse" x="0" y="0" width="80" height="80">
<rect width="80" height="80" fill="#D9D9D9"/>
</mask>
<g mask="url(#mask0_1022_1490)">
<path d="M40.7242 62.3075C41.2203 62.252 41.6081 62.0812 41.8875 61.795C42.1675 61.5084 42.3075 61.1631 42.3075 60.7592C42.3075 60.2875 42.1478 59.9223 41.8284 59.6634C41.5084 59.405 41.0997 59.3037 40.6025 59.3592C38.3247 59.5259 35.78 58.8153 32.9684 57.2275C30.1561 55.6398 28.4167 52.9848 27.75 49.2625C27.6389 48.737 27.4542 48.3439 27.1959 48.0834C26.937 47.8228 26.6089 47.6925 26.2117 47.6925C25.7756 47.6925 25.4036 47.8559 25.0959 48.1825C24.7886 48.5098 24.697 48.9981 24.8209 49.6475C25.6797 54.2759 27.8164 57.5878 31.2309 59.5834C34.6453 61.5789 37.8097 62.487 40.7242 62.3075ZM39.9884 70C33.325 70 27.7722 67.7073 23.33 63.1217C18.8878 58.5367 16.6667 52.8295 16.6667 46C16.6667 41.2139 18.5972 35.92 22.4584 30.1184C26.3195 24.3173 32.1667 17.9531 40 11.0259C47.8334 17.9531 53.6806 24.3173 57.5417 30.1184C61.4028 35.92 63.3334 41.2139 63.3334 46C63.3334 52.8295 61.1084 58.5367 56.6584 63.1217C52.2078 67.7073 46.6511 70 39.9884 70ZM40 66.6667C45.7778 66.6667 50.5556 64.7084 54.3334 60.7917C58.1111 56.875 60 51.9445 60 46C60 41.9445 58.3195 37.3612 54.9584 32.25C51.5972 27.1389 46.6111 21.5556 40 15.5C33.3889 21.5556 28.4028 27.1389 25.0417 32.25C21.6806 37.3612 20 41.9445 20 46C20 51.9445 21.8889 56.875 25.6667 60.7917C29.4445 64.7084 34.2222 66.6667 40 66.6667Z" fill="white"/>
</g>
</svg>
