<svg width="64" height="64" viewBox="0 0 64 64" fill="none" xmlns="http://www.w3.org/2000/svg">
<mask id="mask0_1022_4702" style="mask-type:alpha" maskUnits="userSpaceOnUse" x="0" y="0" width="64" height="64">
<rect width="64" height="64" fill="#D9D9D9"/>
</mask>
<g mask="url(#mask0_1022_4702)">
<path d="M32 54.4613C30.8511 54.4613 29.8802 54.0649 29.0873 53.272C28.294 52.4787 27.8973 51.5076 27.8973 50.3587C27.8973 49.2102 28.294 48.2393 29.0873 47.446C29.8802 46.6531 30.8511 46.2567 32 46.2567C33.1489 46.2567 34.1198 46.6531 34.9127 47.446C35.706 48.2393 36.1027 49.2102 36.1027 50.3587C36.1027 51.5076 35.706 52.4787 34.9127 53.272C34.1198 54.0649 33.1489 54.4613 32 54.4613ZM16.9333 40.9333L14.2053 38.1747C16.5196 35.86 19.1898 34.0471 22.216 32.736C25.2422 31.4249 28.5065 30.7693 32.0087 30.7693C35.5105 30.7693 38.7716 31.4273 41.792 32.7433C44.8129 34.0598 47.4805 35.8804 49.7947 38.2053L47.0667 40.9333C45.1111 38.9778 42.8445 37.4444 40.2667 36.3333C37.6889 35.2222 34.9333 34.6667 32 34.6667C29.0667 34.6667 26.3111 35.2222 23.7333 36.3333C21.1556 37.4444 18.8889 38.9778 16.9333 40.9333ZM5.60001 29.6L2.87201 26.872C6.5849 23.1387 10.9182 20.1882 15.872 18.0207C20.8258 15.8531 26.2018 14.7693 32 14.7693C37.7982 14.7693 43.1742 15.8531 48.128 18.0207C53.0818 20.1882 57.4151 23.1387 61.128 26.872L58.4 29.6C54.9778 26.1778 51.0111 23.5 46.5 21.5667C41.9889 19.6333 37.1556 18.6667 32 18.6667C26.8445 18.6667 22.0111 19.6333 17.5 21.5667C12.9889 23.5 9.02223 26.1778 5.60001 29.6Z" fill="white"/>
<path d="M32 54.4613C30.8511 54.4613 29.8802 54.0649 29.0873 53.272C28.294 52.4787 27.8973 51.5076 27.8973 50.3587C27.8973 49.2102 28.294 48.2393 29.0873 47.446C29.8802 46.6531 30.8511 46.2567 32 46.2567C33.1489 46.2567 34.1198 46.6531 34.9127 47.446C35.706 48.2393 36.1027 49.2102 36.1027 50.3587C36.1027 51.5076 35.706 52.4787 34.9127 53.272C34.1198 54.0649 33.1489 54.4613 32 54.4613ZM16.9333 40.9333L14.2053 38.1747C16.5196 35.86 19.1898 34.0471 22.216 32.736C25.2422 31.4249 28.5065 30.7693 32.0087 30.7693C35.5105 30.7693 38.7716 31.4273 41.792 32.7433C44.8129 34.0598 47.4805 35.8804 49.7947 38.2053L47.0667 40.9333C45.1111 38.9778 42.8445 37.4444 40.2667 36.3333C37.6889 35.2222 34.9333 34.6667 32 34.6667C29.0667 34.6667 26.3111 35.2222 23.7333 36.3333C21.1556 37.4444 18.8889 38.9778 16.9333 40.9333ZM5.60001 29.6L2.87201 26.872C6.5849 23.1387 10.9182 20.1882 15.872 18.0207C20.8258 15.8531 26.2018 14.7693 32 14.7693C37.7982 14.7693 43.1742 15.8531 48.128 18.0207C53.0818 20.1882 57.4151 23.1387 61.128 26.872L58.4 29.6C54.9778 26.1778 51.0111 23.5 46.5 21.5667C41.9889 19.6333 37.1556 18.6667 32 18.6667C26.8445 18.6667 22.0111 19.6333 17.5 21.5667C12.9889 23.5 9.02223 26.1778 5.60001 29.6Z" fill="#212121" fill-opacity="0.8"/>
</g>
</svg>
