<svg width="80" height="80" viewBox="0 0 80 80" fill="none" xmlns="http://www.w3.org/2000/svg">
<mask id="mask0_1022_3155" style="mask-type:alpha" maskUnits="userSpaceOnUse" x="0" y="0" width="80" height="80">
<rect width="80" height="80" fill="#D9D9D9"/>
</mask>
<g mask="url(#mask0_1022_3155)">
<path d="M64.9483 67.1792L44.0767 46.3075C42.41 47.7264 40.4933 48.8248 38.3267 49.6025C36.16 50.3803 33.9828 50.7692 31.795 50.7692C26.4561 50.7692 21.9375 48.9212 18.2392 45.225C14.5414 41.5289 12.6925 37.0131 12.6925 31.6775C12.6925 26.3414 14.5406 21.8217 18.2367 18.1184C21.9328 14.4156 26.4486 12.5642 31.7842 12.5642C37.1203 12.5642 41.64 14.4131 45.3433 18.1109C49.0461 21.8092 50.8975 26.3278 50.8975 31.6667C50.8975 33.9828 50.4872 36.2242 49.6667 38.3909C48.8461 40.5575 47.7692 42.41 46.4358 43.9484L67.3075 64.8209L64.9483 67.1792ZM31.795 47.4359C36.2178 47.4359 39.9517 45.9134 42.9967 42.8684C46.0417 39.8239 47.5642 36.09 47.5642 31.6667C47.5642 27.2434 46.0417 23.5095 42.9967 20.465C39.9517 17.42 36.2178 15.8975 31.795 15.8975C27.3717 15.8975 23.6378 17.42 20.5933 20.465C17.5483 23.5095 16.0258 27.2434 16.0258 31.6667C16.0258 36.09 17.5483 39.8239 20.5933 42.8684C23.6378 45.9134 27.3717 47.4359 31.795 47.4359ZM30.1283 39.615V33.3334H23.8458V30H30.1283V23.7184H33.4617V30H39.7433V33.3334H33.4617V39.615H30.1283Z" fill="white"/>
</g>
</svg>
