<svg width="24" height="24" viewBox="0 0 24 24" fill="none" xmlns="http://www.w3.org/2000/svg">
<mask id="mask0_1023_6129" style="mask-type:alpha" maskUnits="userSpaceOnUse" x="0" y="0" width="24" height="24">
<rect width="24" height="24" fill="#D9D9D9"/>
</mask>
<g mask="url(#mask0_1023_6129)">
<path d="M14.8845 17.9998C14.3 17.9998 13.8013 17.7934 13.3885 17.3805C12.9757 16.9677 12.7692 16.469 12.7692 15.8843C12.7692 15.2998 12.9757 14.8011 13.3885 14.3883C13.8013 13.9755 14.3 13.769 14.8845 13.769C15.4692 13.769 15.9679 13.9755 16.3807 14.3883C16.7936 14.8011 17 15.2998 17 15.8843C17 16.469 16.7936 16.9677 16.3807 17.3805C15.9679 17.7934 15.4692 17.9998 14.8845 17.9998ZM5.6155 20.9998C5.15517 20.9998 4.77083 20.8456 4.4625 20.5373C4.15417 20.229 4 19.8446 4 19.3843V6.61529C4 6.15496 4.15417 5.77063 4.4625 5.46229C4.77083 5.15396 5.15517 4.99979 5.6155 4.99979H7.3845V2.76904H8.4615V4.99979H15.6155V2.76904H16.6155V4.99979H18.3845C18.8448 4.99979 19.2292 5.15396 19.5375 5.46229C19.8458 5.77063 20 6.15496 20 6.61529V19.3843C20 19.8446 19.8458 20.229 19.5375 20.5373C19.2292 20.8456 18.8448 20.9998 18.3845 20.9998H5.6155ZM5.6155 19.9998H18.3845C18.5385 19.9998 18.6796 19.9357 18.8077 19.8075C18.9359 19.6794 19 19.5383 19 19.3843V10.6153H5V19.3843C5 19.5383 5.06408 19.6794 5.19225 19.8075C5.32042 19.9357 5.4615 19.9998 5.6155 19.9998ZM5 9.61504H19V6.61529C19 6.46129 18.9359 6.32021 18.8077 6.19204C18.6796 6.06388 18.5385 5.99979 18.3845 5.99979H5.6155C5.4615 5.99979 5.32042 6.06388 5.19225 6.19204C5.06408 6.32021 5 6.46129 5 6.61529V9.61504Z" fill="white"/>
</g>
</svg>
