<svg width="24" height="25" viewBox="0 0 24 25" fill="none" xmlns="http://www.w3.org/2000/svg">
<mask id="mask0_1022_1760" style="mask-type:alpha" maskUnits="userSpaceOnUse" x="0" y="0" width="24" height="25">
<rect y="0.5" width="24" height="24" fill="#D9D9D9"/>
</mask>
<g mask="url(#mask0_1022_1760)">
<path d="M12.028 17.7308C12.249 17.7308 12.4355 17.6544 12.5875 17.5017C12.7395 17.3491 12.8155 17.1623 12.8155 16.9413C12.8155 16.7201 12.7392 16.5336 12.5865 16.3818C12.4338 16.2298 12.2469 16.1538 12.0258 16.1538C11.8048 16.1538 11.6183 16.2301 11.4663 16.3828C11.3144 16.5354 11.2385 16.7223 11.2385 16.9435C11.2385 17.1645 11.3148 17.351 11.4675 17.503C11.6202 17.6548 11.807 17.7308 12.028 17.7308ZM11.5115 14.4192H12.477C12.5027 13.9846 12.5843 13.6313 12.722 13.3595C12.8598 13.0878 13.1435 12.7411 13.573 12.3193C14.0192 11.8731 14.3513 11.4734 14.5693 11.1203C14.7873 10.7671 14.8962 10.3583 14.8962 9.89375C14.8962 9.10558 14.6193 8.4775 14.0655 8.0095C13.5117 7.54167 12.8565 7.30775 12.1 7.30775C11.3808 7.30775 10.7703 7.50325 10.2683 7.89425C9.76642 8.28525 9.39883 8.73458 9.1655 9.24225L10.0845 9.623C10.2448 9.259 10.474 8.93725 10.772 8.65775C11.0702 8.37825 11.5 8.2385 12.0615 8.2385C12.7102 8.2385 13.1839 8.41633 13.4827 8.772C13.7814 9.12783 13.9307 9.51925 13.9307 9.94625C13.9307 10.2924 13.8372 10.6017 13.65 10.874C13.4628 11.1465 13.2193 11.4206 12.9193 11.6962C12.3398 12.2308 11.9602 12.6839 11.7808 13.0558C11.6013 13.4276 11.5115 13.8821 11.5115 14.4192ZM12.0033 21.5C10.7587 21.5 9.58867 21.2638 8.493 20.7915C7.3975 20.3192 6.4445 19.6782 5.634 18.8685C4.8235 18.0588 4.18192 17.1067 3.70925 16.012C3.23642 14.9175 3 13.7479 3 12.5033C3 11.2587 3.23617 10.0887 3.7085 8.993C4.18083 7.8975 4.82183 6.9445 5.6315 6.134C6.44117 5.3235 7.39333 4.68192 8.488 4.20925C9.5825 3.73642 10.7521 3.5 11.9967 3.5C13.2413 3.5 14.4113 3.73617 15.507 4.2085C16.6025 4.68083 17.5555 5.32183 18.366 6.1315C19.1765 6.94117 19.8181 7.89333 20.2908 8.988C20.7636 10.0825 21 11.2521 21 12.4967C21 13.7413 20.7638 14.9113 20.2915 16.007C19.8192 17.1025 19.1782 18.0555 18.3685 18.866C17.5588 19.6765 16.6067 20.3181 15.512 20.7908C14.4175 21.2636 13.2479 21.5 12.0033 21.5ZM12 20.5C14.2333 20.5 16.125 19.725 17.675 18.175C19.225 16.625 20 14.7333 20 12.5C20 10.2667 19.225 8.375 17.675 6.825C16.125 5.275 14.2333 4.5 12 4.5C9.76667 4.5 7.875 5.275 6.325 6.825C4.775 8.375 4 10.2667 4 12.5C4 14.7333 4.775 16.625 6.325 18.175C7.875 19.725 9.76667 20.5 12 20.5Z" fill="white"/>
</g>
</svg>
