<svg width="24" height="25" viewBox="0 0 24 25" fill="none" xmlns="http://www.w3.org/2000/svg">
<path d="M14.4452 8.28368C15.0622 7.81878 15.1854 6.94174 14.7205 6.32509C14.2556 5.70812 13.3789 5.58492 12.7619 6.04981C12.2263 6.45357 12.0633 7.16799 12.3343 7.75299L9.30094 12.1558C8.81184 12.8656 8.03629 13.2889 7.17322 13.3168C6.3297 13.3445 5.54608 12.9829 5.02749 12.3262C5.01384 12.3092 5.0008 12.2918 4.98746 12.2744C4.53994 11.6804 4.35032 10.948 4.45397 10.2115C4.55763 9.47509 4.94153 8.82337 5.53553 8.37554C6.49449 7.65337 7.80197 7.62481 8.78918 8.30478C9.11318 8.52823 9.55697 8.4463 9.78042 8.12199C10.0039 7.79799 9.92194 7.35419 9.59763 7.13074C8.10394 6.10195 6.12673 6.14478 4.67742 7.23688C3.77929 7.91437 3.19863 8.90002 3.04222 10.0135C2.8858 11.1271 3.17225 12.2347 3.8488 13.1325C3.86804 13.1576 3.88729 13.1828 3.90777 13.2088C4.68177 14.1892 5.83222 14.7438 7.08135 14.7438C7.12729 14.7438 7.17322 14.7429 7.21915 14.7416C8.53935 14.6988 9.72611 14.0511 10.4744 12.9646L13.5083 8.56081C13.8323 8.58316 14.1653 8.4944 14.4449 8.28368H14.4452Z" fill="white"/>
<path d="M20.1532 11.8658C20.1342 11.8409 20.1156 11.8164 20.0958 11.7913C19.2932 10.7749 18.0863 10.2147 16.7841 10.2585C15.4639 10.3013 14.2774 10.949 13.5289 12.0355L10.4949 16.4393C10.1709 16.417 9.83793 16.5057 9.558 16.7165C8.94103 17.1814 8.81783 18.0584 9.28272 18.675C9.74762 19.292 10.6247 19.4152 11.2413 18.9503C11.777 18.5466 11.9399 17.8321 11.669 17.2471L14.7023 12.844C15.1914 12.1342 15.9666 11.7109 16.83 11.683C17.6769 11.6547 18.4574 12.0166 18.9757 12.6733C18.9897 12.691 19.0033 12.7087 19.0158 12.7251C19.9397 13.951 19.6939 15.7001 18.4677 16.6237C17.509 17.3461 16.2016 17.3747 15.214 16.6944C14.8897 16.471 14.4459 16.5526 14.2228 16.8772C13.9993 17.2012 14.0813 17.645 14.4056 17.8685C15.1262 18.3647 15.9592 18.6117 16.7912 18.6117C17.6838 18.6117 18.5754 18.3275 19.3255 17.7623C21.1792 16.3655 21.5507 13.721 20.1526 11.8658H20.1532Z" fill="white"/>
</svg>
