<svg width="24" height="24" viewBox="0 0 24 24" fill="none" xmlns="http://www.w3.org/2000/svg">
<mask id="mask0_183_3372" style="mask-type:alpha" maskUnits="userSpaceOnUse" x="0" y="0" width="24" height="24">
<rect width="24" height="24" fill="#D9D9D9"/>
</mask>
<g mask="url(#mask0_183_3372)">
<path d="M14.6155 16.5C14.1552 16.5 13.7708 16.3458 13.4625 16.0375C13.1542 15.7292 13 15.3448 13 14.8845V14.5H14V14.8845C14 15.064 14.0577 15.2115 14.173 15.327C14.2885 15.4423 14.436 15.5 14.6155 15.5H17.3845C17.564 15.5 17.7115 15.4423 17.827 15.327C17.9423 15.2115 18 15.064 18 14.8845V13.1155C18 12.936 17.9423 12.7885 17.827 12.673C17.7115 12.5577 17.564 12.5 17.3845 12.5H14.6155C14.1552 12.5 13.7708 12.3458 13.4625 12.0375C13.1542 11.7292 13 11.3448 13 10.8845V9.1155C13 8.65517 13.1542 8.27083 13.4625 7.9625C13.7708 7.65417 14.1552 7.5 14.6155 7.5H17.3845C17.8448 7.5 18.2292 7.65417 18.5375 7.9625C18.8458 8.27083 19 8.65517 19 9.1155V9.5H18V9.1155C18 8.936 17.9423 8.7885 17.827 8.673C17.7115 8.55767 17.564 8.5 17.3845 8.5H14.6155C14.436 8.5 14.2885 8.55767 14.173 8.673C14.0577 8.7885 14 8.936 14 9.1155V10.8845C14 11.064 14.0577 11.2115 14.173 11.327C14.2885 11.4423 14.436 11.5 14.6155 11.5H17.3845C17.8448 11.5 18.2292 11.6542 18.5375 11.9625C18.8458 12.2708 19 12.6552 19 13.1155V14.8845C19 15.3448 18.8458 15.7292 18.5375 16.0375C18.2292 16.3458 17.8448 16.5 17.3845 16.5H14.6155ZM5 7.5H11V8.5H6V11.5H10V12.5H6V15.5H11V16.5H5V7.5Z" fill="#212121"/>
</g>
</svg>
