<svg width="24" height="24" viewBox="0 0 24 24" fill="none" xmlns="http://www.w3.org/2000/svg">
<mask id="mask0_1022_93" style="mask-type:alpha" maskUnits="userSpaceOnUse" x="0" y="0" width="24" height="24">
<rect width="24" height="24" fill="#D9D9D9"/>
</mask>
<g mask="url(#mask0_1022_93)">
<path d="M9.99944 13.9999V9.99993H13.9994V13.9999H9.99944ZM10.9994 12.9999H12.9994V10.9999H10.9994V12.9999ZM9.49944 19.5384V17.9999H7.61494C7.1546 17.9999 6.77027 17.8458 6.46194 17.5374C6.1536 17.2291 5.99944 16.8448 5.99944 16.3844V14.4999H4.46094V13.4999H5.99944V10.4999H4.46094V9.49993H5.99944V7.61543C5.99944 7.15509 6.1536 6.77076 6.46194 6.46243C6.77027 6.15409 7.1546 5.99993 7.61494 5.99993H9.49944V4.46143H10.4994V5.99993H13.4994V4.46143H14.4994V5.99993H16.3839C16.8443 5.99993 17.2286 6.15409 17.5369 6.46243C17.8453 6.77076 17.9994 7.15509 17.9994 7.61543V9.49993H19.5379V10.4999H17.9994V13.4999H19.5379V14.4999H17.9994V16.3844C17.9994 16.8448 17.8453 17.2291 17.5369 17.5374C17.2286 17.8458 16.8443 17.9999 16.3839 17.9999H14.4994V19.5384H13.4994V17.9999H10.4994V19.5384H9.49944ZM16.3839 16.9999C16.5379 16.9999 16.679 16.9358 16.8072 16.8077C16.9354 16.6795 16.9994 16.5384 16.9994 16.3844V7.61543C16.9994 7.46143 16.9354 7.32034 16.8072 7.19218C16.679 7.06401 16.5379 6.99993 16.3839 6.99993H7.61494C7.46094 6.99993 7.31985 7.06401 7.19169 7.19218C7.06352 7.32034 6.99944 7.46143 6.99944 7.61543V16.3844C6.99944 16.5384 7.06352 16.6795 7.19169 16.8077C7.31985 16.9358 7.46094 16.9999 7.61494 16.9999H16.3839Z" fill="#212121"/>
</g>
</svg>
