<?xml version="1.0" encoding="UTF-8"?>
<svg id="Capa_2" data-name="Capa 2" xmlns="http://www.w3.org/2000/svg" viewBox="0 0 1420 212.16">
  <defs>
    <style>
      .cls-1 {
        fill: #00a5cf;
      }

      .cls-1, .cls-2 {
        stroke-width: 0px;
      }

      .cls-2 {
        fill: #172a4f;
      }
    </style>
  </defs>
  <g id="Capa_1-2" data-name="Capa 1">
    <g>
      <g>
        <g>
          <path class="cls-2" d="m414.14,133.26c-3.8-4.49-9.01-7.94-15.62-10.32-6.58-2.41-13.85-4.28-21.79-5.61l-7.86-1.36c-5.99-1.04-10.75-2.62-14.25-4.71-3.53-2.11-5.29-5.4-5.29-9.89,0-4.2,1.79-7.46,5.4-9.79,3.58-2.3,8.53-3.48,14.81-3.48s11.85,1.39,16.18,4.17c4.36,2.75,7.19,7.51,8.56,14.25l21.55-6.07c-2.38-9.57-7.59-17.19-15.61-22.81-8-5.61-18.24-8.42-30.67-8.42s-23.21,2.89-30.99,8.66c-7.81,5.78-11.68,13.88-11.68,24.38,0,7.03,1.79,12.81,5.37,17.3,3.61,4.49,8.48,7.99,14.63,10.56,6.12,2.54,12.94,4.49,20.43,5.83l7.65,1.34c7.33,1.36,12.89,3.07,16.63,5.19,3.74,2.09,5.62,5.37,5.62,9.89s-1.98,8.15-5.96,10.99c-3.96,2.86-9.63,4.28-16.95,4.28-4.95,0-9.55-.75-13.82-2.25-4.28-1.5-7.83-4.04-10.67-7.65-2.86-3.58-4.87-8.45-6.07-14.6l-21.58,5.16c2.11,12.75,7.78,22.25,17.08,28.53,9.28,6.31,20.96,9.44,35.05,9.44s25-3.05,33.26-9.2c8.24-6.15,12.35-14.76,12.35-25.86,0-7.49-1.93-13.48-5.75-17.97Z"/>
          <path class="cls-2" d="m548.65,125.4c0-11.23-2.25-21.04-6.74-29.44-4.49-8.37-10.75-14.95-18.74-19.65-8.02-4.73-17.35-7.09-27.99-7.09s-20.53,2.35-28.85,7.09c-8.31,4.71-14.81,11.39-19.44,20-4.65,8.61-6.98,18.69-6.98,30.21v2.7c0,11.39,2.35,21.39,7.09,30,4.71,8.61,11.26,15.27,19.65,20,8.4,4.71,18.21,7.06,29.44,7.06,10.03,0,18.26-1.55,24.7-4.71,6.44-3.15,11.66-7.03,15.61-11.68,3.98-4.65,7.01-9.06,9.12-13.26l-19.09-9.89c-2.41,5.11-5.83,9.6-10.24,13.5-4.41,3.88-10.96,5.83-19.65,5.83-9.3,0-17.03-2.89-23.26-8.64-6.2-5.78-9.47-13.53-9.76-23.26h85.13v-8.77Zm-84.92-8.98c1.2-8.4,4.52-14.95,10-19.65,5.45-4.73,12.54-7.09,21.23-7.09s15.72,2.35,21.12,7.09c5.4,4.71,8.39,11.26,8.98,19.65h-61.34Z"/>
          <path class="cls-2" d="m780.57,133.26c-3.82-4.49-9.04-7.94-15.61-10.32-6.6-2.41-13.88-4.28-21.79-5.61l-7.89-1.36c-5.99-1.04-10.75-2.62-14.25-4.71-3.53-2.11-5.29-5.4-5.29-9.89,0-4.2,1.82-7.46,5.4-9.79,3.58-2.3,8.53-3.48,14.84-3.48s11.82,1.39,16.18,4.17c4.33,2.75,7.19,7.51,8.53,14.25l21.58-6.07c-2.41-9.57-7.62-17.19-15.61-22.81-8.02-5.61-18.24-8.42-30.67-8.42s-23.23,2.89-31.02,8.66c-7.78,5.78-11.68,13.88-11.68,24.38,0,7.03,1.79,12.81,5.4,17.3,3.58,4.49,8.45,7.99,14.6,10.56,6.15,2.54,12.94,4.49,20.45,5.83l7.62,1.34c7.35,1.36,12.89,3.07,16.63,5.19,3.74,2.09,5.62,5.37,5.62,9.89s-1.98,8.15-5.94,10.99c-3.98,2.86-9.62,4.28-16.98,4.28-4.95,0-9.55-.75-13.82-2.25-4.25-1.5-7.83-4.04-10.67-7.65-2.83-3.58-4.87-8.45-6.07-14.6l-21.58,5.16c2.11,12.75,7.81,22.25,17.08,28.53,9.28,6.31,20.96,9.44,35.05,9.44s25.03-3.05,33.26-9.2c8.24-6.15,12.35-14.76,12.35-25.86,0-7.49-1.9-13.48-5.72-17.97Z"/>
          <path class="cls-2" d="m915.09,125.4c0-11.23-2.25-21.04-6.74-29.44-4.49-8.37-10.75-14.95-18.77-19.65-8.02-4.73-17.35-7.09-27.97-7.09s-20.56,2.35-28.88,7.09c-8.31,4.71-14.79,11.39-19.44,20-4.65,8.61-6.98,18.69-6.98,30.21v2.7c0,11.39,2.38,21.39,7.09,30,4.73,8.61,11.28,15.27,19.65,20,8.4,4.71,18.21,7.06,29.44,7.06,10.05,0,18.29-1.55,24.73-4.71,6.42-3.15,11.63-7.03,15.61-11.68,3.96-4.65,7.01-9.06,9.09-13.26l-19.09-9.89c-2.41,5.11-5.8,9.6-10.24,13.5-4.41,3.88-10.96,5.83-19.65,5.83-9.28,0-17.03-2.89-23.26-8.64-6.2-5.78-9.47-13.53-9.76-23.26h85.16v-8.77Zm-84.94-8.98c1.2-8.4,4.55-14.95,10-19.65,5.48-4.73,12.54-7.09,21.23-7.09s15.72,2.35,21.12,7.09c5.4,4.71,8.39,11.26,8.98,19.65h-61.34Z"/>
          <path class="cls-2" d="m668.52,120.48v65.81h-24.19v-65.81c0-14.21-11.51-25.72-25.72-25.72s-25.72,11.51-25.72,25.72v65.81h-24.19v-65.81c0-18.16,9.68-34.03,24.19-42.77,7.5-4.53,16.3-7.14,25.72-7.14s18.22,2.61,25.72,7.14c14.51,8.74,24.19,24.61,24.19,42.77Z"/>
        </g>
        <g>
          <path class="cls-2" d="m1051.96,72.38l-29.44,93.69h-3.58l-29.44-93.69h-24.49l37.3,110.77h36.84l37.3-110.77h-24.49Z"/>
          <path class="cls-2" d="m1104.99,57.32c-4.49,0-8.28-1.46-11.35-4.38-3.07-2.92-4.61-6.7-4.61-11.35s1.53-8.43,4.61-11.35c3.07-2.92,6.85-4.38,11.35-4.38s8.46,1.46,11.46,4.38c2.99,2.92,4.49,6.71,4.49,11.35s-1.5,8.42-4.49,11.35c-3,2.92-6.82,4.38-11.46,4.38Z"/>
          <rect class="cls-2" x="1093.3" y="72.37" width="23.14" height="110.77"/>
          <path class="cls-2" d="m1248.56,125.4c0-11.23-2.25-21.04-6.74-29.44-4.49-8.37-10.75-14.95-18.77-19.65-8-4.73-17.33-7.09-27.97-7.09s-20.56,2.35-28.88,7.09c-8.31,4.71-14.79,11.39-19.44,20-4.63,8.61-6.95,18.69-6.95,30.21v2.7c0,11.39,2.35,21.39,7.09,30,4.71,8.61,11.26,15.27,19.65,20,8.4,4.71,18.21,7.06,29.44,7.06,10.03,0,18.26-1.55,24.7-4.71,6.44-3.15,11.66-7.03,15.62-11.68,3.96-4.65,7-9.06,9.09-13.26l-19.09-9.89c-2.41,5.11-5.8,9.6-10.21,13.5-4.44,3.88-10.99,5.83-19.65,5.83-9.3,0-17.06-2.89-23.26-8.64-6.23-5.78-9.49-13.53-9.79-23.26h85.16v-8.77Zm-84.92-8.98c1.18-8.4,4.52-14.95,10-19.65,5.45-4.73,12.54-7.09,21.23-7.09s15.72,2.35,21.12,7.09c5.37,4.71,8.37,11.26,8.98,19.65h-61.34Z"/>
          <path class="cls-2" d="m1396.85,72.38l-13.93,95.27h-3.58l-19.09-95.27h-37.54l-19.3,95.27h-3.61l-13.93-95.27h-23.13l18.85,110.77h38.88l19.12-95.05h3.58l19.09,95.05h38.88l18.88-110.77h-23.15Z"/>
        </g>
      </g>
      <g>
        <path class="cls-1" d="m180.34,39.64c9.72-7.32,11.66-21.14,4.34-30.86-7.32-9.72-21.14-11.66-30.86-4.34-8.44,6.36-11.01,17.62-6.74,26.84l-47.8,69.38c-7.7,11.18-19.93,17.85-33.53,18.3-13.29.43-25.64-5.26-33.81-15.61-.21-.27-.42-.54-.63-.82-7.05-9.36-10.04-20.9-8.41-32.5s7.68-21.88,17.04-28.93c15.11-11.38,35.71-11.83,51.27-1.12,5.1,3.52,12.1,2.23,15.62-2.88,3.52-5.11,2.23-12.1-2.88-15.62-23.54-16.21-54.69-15.54-77.53,1.67C12.27,33.82,3.13,49.35.66,66.9c-2.47,17.54,2.05,35,12.71,49.15.3.4.61.79.93,1.2,12.2,15.45,30.33,24.19,50.01,24.19.72,0,1.45-.01,2.17-.04,20.81-.68,39.5-10.88,51.3-28l47.81-69.39c5.1.35,10.35-1.05,14.76-4.37Z"/>
        <path class="cls-1" d="m270.29,96.08c-.3-.39-.59-.78-.91-1.17-12.65-16.02-31.67-24.84-52.18-24.15-20.8.68-39.5,10.88-51.29,28l-47.81,69.39c-5.1-.35-10.35,1.05-14.76,4.37-9.72,7.32-11.66,21.14-4.34,30.86,7.32,9.72,21.14,11.66,30.86,4.34,8.44-6.36,11.01-17.62,6.74-26.84l47.8-69.38c7.7-11.18,19.92-17.85,33.53-18.29,13.35-.44,25.64,5.26,33.81,15.61.22.28.44.56.63.82,14.56,19.32,10.68,46.88-8.63,61.43-15.11,11.39-35.71,11.83-51.27,1.12-5.11-3.52-12.1-2.23-15.62,2.88-3.52,5.11-2.23,12.1,2.88,15.62,11.35,7.82,24.48,11.71,37.59,11.71,14.07,0,28.12-4.48,39.94-13.38,29.21-22.01,35.06-63.68,13.03-92.91Z"/>
      </g>
    </g>
  </g>
</svg>