<svg width="24" height="24" viewBox="0 0 24 24" fill="none" xmlns="http://www.w3.org/2000/svg">
<path d="M14.4447 7.78368C15.0617 7.31878 15.1849 6.44174 14.72 5.82509C14.2551 5.20812 13.3784 5.08492 12.7614 5.54981C12.2258 5.95357 12.0628 6.66799 12.3338 7.25299L9.30045 11.6558C8.81135 12.3656 8.0358 12.7889 7.17273 12.8168C6.32921 12.8445 5.54559 12.4829 5.027 11.8262C5.01335 11.8092 5.00031 11.7918 4.98697 11.7744C4.53945 11.1804 4.34983 10.448 4.45349 9.71154C4.55714 8.97509 4.94104 8.32337 5.53504 7.87554C6.494 7.15337 7.80149 7.12481 8.78869 7.80478C9.11269 8.02823 9.55649 7.9463 9.77993 7.62199C10.0034 7.29799 9.92145 6.85419 9.59714 6.63074C8.10345 5.60195 6.12625 5.64478 4.67693 6.73688C3.7788 7.41437 3.19814 8.40002 3.04173 9.51354C2.88531 10.6271 3.17176 11.7347 3.84831 12.6325C3.86756 12.6576 3.8868 12.6828 3.90728 12.7088C4.68128 13.6892 5.83173 14.2438 7.08087 14.2438C7.1268 14.2438 7.17273 14.2429 7.21866 14.2416C8.53887 14.1988 9.72562 13.5511 10.4739 12.4646L13.5078 8.06081C13.8318 8.08316 14.1648 7.9944 14.4444 7.78368H14.4447Z" fill="#212121"/>
<path d="M20.1522 11.3655C20.1333 11.3407 20.1146 11.3162 20.0948 11.291C19.2922 10.2747 18.0853 9.71449 16.7831 9.75824C15.4629 9.80107 14.2764 10.4488 13.5279 11.5353L10.494 15.9391C10.17 15.9167 9.83695 16.0055 9.55702 16.2162C8.94006 16.6811 8.81685 17.5581 9.28175 18.1748C9.74664 18.7918 10.6237 18.915 11.2403 18.4501C11.776 18.0463 11.9389 17.3319 11.668 16.7469L14.7013 12.3437C15.1904 11.634 15.9656 11.2107 16.829 11.1827C17.676 11.1545 18.4565 11.5163 18.9747 12.173C18.9887 12.1907 19.0024 12.2084 19.0148 12.2249C19.9387 13.4507 19.6929 15.1998 18.4667 16.1234C17.5081 16.8459 16.2006 16.8745 15.2131 16.1942C14.8887 15.9707 14.445 16.0523 14.2218 16.377C13.9984 16.701 14.0803 17.1448 14.4046 17.3682C15.1252 17.8645 15.9582 18.1115 16.7902 18.1115C17.6828 18.1115 18.5744 17.8272 19.3245 17.2621C21.1782 15.8652 21.5497 13.2208 20.1516 11.3655H20.1522Z" fill="#212121"/>
</svg>
