<svg width="24" height="24" viewBox="0 0 24 24" fill="none" xmlns="http://www.w3.org/2000/svg">
<mask id="mask0_1022_72" style="mask-type:alpha" maskUnits="userSpaceOnUse" x="0" y="0" width="24" height="24">
<rect width="24" height="24" fill="#D9D9D9"/>
</mask>
<g mask="url(#mask0_1022_72)">
<path d="M21.0802 20.9038L15.8224 15.6462C15.0879 16.2436 14.3306 16.7019 13.5504 17.0212C12.7703 17.3404 11.8879 17.5 10.9032 17.5C9.55702 17.5 8.32785 17.1814 7.21569 16.5443C6.10352 15.9071 5.21669 15.059 4.55519 14H5.79369C6.39885 14.7577 7.14144 15.3637 8.02144 15.8182C8.9016 16.2727 9.86219 16.5 10.9032 16.5C12.6982 16.5 14.2303 15.8654 15.4994 14.5963C16.7686 13.3269 17.4032 11.7948 17.4032 10C17.4032 8.20517 16.7686 6.67308 15.4994 5.40375C14.2303 4.13458 12.6982 3.5 10.9032 3.5C9.19552 3.5 7.72277 4.08042 6.48494 5.24125C5.2471 6.40225 4.56152 7.82183 4.42819 9.5H3.42819C3.56152 7.52433 4.33944 5.86375 5.76194 4.51825C7.18444 3.17275 8.89819 2.5 10.9032 2.5C12.9955 2.5 14.7686 3.22692 16.2224 4.68075C17.6763 6.13458 18.4032 7.90767 18.4032 10C18.4032 10.9847 18.2436 11.8702 17.9244 12.6567C17.6053 13.4432 17.1469 14.2038 16.5494 14.9385L21.7879 20.177L21.0802 20.9038ZM10.0399 13.6923L8.27244 7.81925L6.74169 12.1923H2.21094V11.3077H6.11494L7.76494 6.55775H8.82244L10.5589 12.3885L11.9032 8.30775H12.9609L14.4609 11.3077H15.2879V12.1923H13.9207L12.4957 9.34225L11.0724 13.6923H10.0399Z" fill="#212121"/>
</g>
</svg>
